<?xml version="1.0" encoding="UTF-8" standalone="no"?>
<!DOCTYPE svg PUBLIC "-//W3C//DTD SVG 1.1//EN"
 "http://www.w3.org/Graphics/SVG/1.1/DTD/svg11.dtd">
<!-- Generated by graphviz version 2.26.3 (20100126.1600)
 -->
<svg width="778pt" height="342pt"
 viewBox="0.00 0.00 778.17 342.00" xmlns="http://www.w3.org/2000/svg" xmlns:xlink="http://www.w3.org/1999/xlink">
<g id="graph1" class="graph" transform="scale(1 1) rotate(0) translate(4 338)">
<title>httpd relationship</title>
<polygon fill="white" stroke="white" points="-4,5 -4,-338 775.168,-338 775.168,5 -4,5"/>
<!-- zlib -->
<g id="node1" class="node"><title>zlib</title>
<ellipse fill="#b2dfee" stroke="#b2dfee" cx="29" cy="-315" rx="28.9914" ry="18.3848"/>
<text text-anchor="middle" x="29" y="-311.4" font-family="Times Roman,serif" font-size="14.00">zlib</text>
</g>
<!-- OpenSSL -->
<g id="node3" class="node"><title>OpenSSL</title>
<ellipse fill="#b2dfee" stroke="#b2dfee" cx="71" cy="-241" rx="56.0679" ry="18.3848"/>
<text text-anchor="middle" x="71" y="-237.4" font-family="Times Roman,serif" font-size="14.00">OpenSSL</text>
</g>
<!-- zlib&#45;&gt;OpenSSL -->
<g id="edge2" class="edge"><title>zlib&#45;&gt;OpenSSL</title>
<path fill="none" stroke="black" d="M38.9534,-297.463C43.9168,-288.718 50.0311,-277.945 55.5837,-268.162"/>
<polygon fill="black" stroke="black" points="58.7872,-269.608 60.6794,-259.184 52.6994,-266.153 58.7872,-269.608"/>
</g>
<!-- httpd -->
<g id="node19" class="node"><title>httpd</title>
<ellipse fill="#b2dfee" stroke="#b2dfee" cx="186" cy="-19" rx="38.1838" ry="18.3848"/>
<text text-anchor="middle" x="186" y="-15.4" font-family="Times Roman,serif" font-size="14.00">httpd</text>
</g>
<!-- zlib&#45;&gt;httpd -->
<g id="edge22" class="edge"><title>zlib&#45;&gt;httpd</title>
<path fill="none" stroke="black" d="M19.4549,-297.242C14.3565,-286.739 8.6065,-272.989 6,-260 2.67713,-243.441 2.86432,-238.595 6,-222 19.117,-152.58 15.3093,-125.19 64,-74 84.8505,-52.0792 116.054,-38.2285 141.684,-29.9097"/>
<polygon fill="black" stroke="black" points="143.024,-33.16 151.559,-26.8834 140.973,-26.4673 143.024,-33.16"/>
</g>
<!-- PostgreSQL -->
<g id="node14" class="node"><title>PostgreSQL</title>
<ellipse fill="#b2dfee" stroke="#b2dfee" cx="121" cy="-167" rx="68.0887" ry="18.3848"/>
<text text-anchor="middle" x="121" y="-163.4" font-family="Times Roman,serif" font-size="14.00">PostgreSQL</text>
</g>
<!-- OpenSSL&#45;&gt;PostgreSQL -->
<g id="edge26" class="edge"><title>OpenSSL&#45;&gt;PostgreSQL</title>
<path fill="none" stroke="black" d="M83.3596,-222.708C89.2491,-213.991 96.4087,-203.395 102.896,-193.794"/>
<polygon fill="black" stroke="black" points="105.911,-195.584 108.609,-185.338 100.111,-191.665 105.911,-195.584"/>
</g>
<!-- OpenSSL&#45;&gt;httpd -->
<g id="edge24" class="edge"><title>OpenSSL&#45;&gt;httpd</title>
<path fill="none" stroke="black" d="M58.2939,-222.666C46.7173,-203.532 32.9771,-172.906 44,-148 65.9018,-98.5133 117.204,-59.8788 151.763,-38.2557"/>
<polygon fill="black" stroke="black" points="153.879,-41.0654 160.594,-32.8708 150.234,-35.0888 153.879,-41.0654"/>
</g>
<!-- apr -->
<g id="node4" class="node"><title>apr</title>
<ellipse fill="#b2dfee" stroke="#b2dfee" cx="347" cy="-241" rx="27.0758" ry="18.3848"/>
<text text-anchor="middle" x="347" y="-237.4" font-family="Times Roman,serif" font-size="14.00">apr</text>
</g>
<!-- apr&#45;iconv -->
<g id="node6" class="node"><title>apr&#45;iconv</title>
<ellipse fill="#b2dfee" stroke="#b2dfee" cx="263" cy="-167" rx="56.0679" ry="18.3848"/>
<text text-anchor="middle" x="263" y="-163.4" font-family="Times Roman,serif" font-size="14.00">apr&#45;iconv</text>
</g>
<!-- apr&#45;&gt;apr&#45;iconv -->
<g id="edge4" class="edge"><title>apr&#45;&gt;apr&#45;iconv</title>
<path fill="none" stroke="black" d="M330.404,-226.38C319.08,-216.404 303.809,-202.951 290.666,-191.373"/>
<polygon fill="black" stroke="black" points="292.629,-188.438 282.812,-184.454 288.002,-193.69 292.629,-188.438"/>
</g>
<!-- apr&#45;util -->
<g id="node8" class="node"><title>apr&#45;util</title>
<ellipse fill="#b2dfee" stroke="#b2dfee" cx="347" cy="-93" rx="46.1672" ry="18.3848"/>
<text text-anchor="middle" x="347" y="-89.4" font-family="Times Roman,serif" font-size="14.00">apr&#45;util</text>
</g>
<!-- apr&#45;&gt;apr&#45;util -->
<g id="edge6" class="edge"><title>apr&#45;&gt;apr&#45;util</title>
<path fill="none" stroke="black" d="M347,-222.256C347,-196.901 347,-151.439 347,-121.75"/>
<polygon fill="black" stroke="black" points="350.5,-121.592 347,-111.592 343.5,-121.592 350.5,-121.592"/>
</g>
<!-- apr&#45;&gt;httpd -->
<g id="edge18" class="edge"><title>apr&#45;&gt;httpd</title>
<path fill="none" stroke="black" d="M374.157,-239.444C462.317,-234.117 736.315,-215.313 762,-186 773.13,-173.297 772.557,-161.183 762,-148 695.723,-65.2378 360.236,-31.9857 234.066,-22.2793"/>
<polygon fill="black" stroke="black" points="234.166,-18.777 223.932,-21.5159 233.641,-25.7572 234.166,-18.777"/>
</g>
<!-- apr&#45;iconv&#45;&gt;apr&#45;util -->
<g id="edge8" class="edge"><title>apr&#45;iconv&#45;&gt;apr&#45;util</title>
<path fill="none" stroke="black" d="M282.907,-149.463C294.05,-139.646 308.094,-127.274 320.194,-116.615"/>
<polygon fill="black" stroke="black" points="322.624,-119.138 327.814,-109.902 317.997,-113.886 322.624,-119.138"/>
</g>
<!-- apr&#45;util&#45;&gt;httpd -->
<g id="edge20" class="edge"><title>apr&#45;util&#45;&gt;httpd</title>
<path fill="none" stroke="black" d="M316.338,-78.907C289.78,-66.7001 251.29,-49.0091 223.021,-36.0157"/>
<polygon fill="black" stroke="black" points="224.405,-32.8002 213.857,-31.804 221.482,-39.1605 224.405,-32.8002"/>
</g>
<!-- Free TDS -->
<g id="node10" class="node"><title>Free TDS</title>
<ellipse fill="#b2dfee" stroke="#b2dfee" cx="431" cy="-167" rx="56.0679" ry="18.3848"/>
<text text-anchor="middle" x="431" y="-163.4" font-family="Times Roman,serif" font-size="14.00">Free TDS</text>
</g>
<!-- Free TDS&#45;&gt;apr&#45;util -->
<g id="edge10" class="edge"><title>Free TDS&#45;&gt;apr&#45;util</title>
<path fill="none" stroke="black" d="M411.093,-149.463C399.95,-139.646 385.906,-127.274 373.806,-116.615"/>
<polygon fill="black" stroke="black" points="376.003,-113.886 366.186,-109.902 371.376,-119.138 376.003,-113.886"/>
</g>
<!-- Oracle -->
<g id="node12" class="node"><title>Oracle</title>
<ellipse fill="#b2dfee" stroke="#b2dfee" cx="548" cy="-167" rx="43.1335" ry="18.3848"/>
<text text-anchor="middle" x="548" y="-163.4" font-family="Times Roman,serif" font-size="14.00">Oracle</text>
</g>
<!-- Oracle&#45;&gt;apr&#45;util -->
<g id="edge12" class="edge"><title>Oracle&#45;&gt;apr&#45;util</title>
<path fill="none" stroke="black" d="M515.259,-154.946C481.356,-142.464 428.197,-122.893 390.719,-109.095"/>
<polygon fill="black" stroke="black" points="391.665,-105.714 381.072,-105.544 389.247,-112.283 391.665,-105.714"/>
</g>
<!-- PostgreSQL&#45;&gt;apr&#45;util -->
<g id="edge14" class="edge"><title>PostgreSQL&#45;&gt;apr&#45;util</title>
<path fill="none" stroke="black" d="M164.575,-152.732C203.833,-139.878 261.343,-121.047 301.256,-107.978"/>
<polygon fill="black" stroke="black" points="302.588,-111.225 311.002,-104.787 300.41,-104.572 302.588,-111.225"/>
</g>
<!-- Berkeley DB -->
<g id="node16" class="node"><title>Berkeley DB</title>
<ellipse fill="#b2dfee" stroke="#b2dfee" cx="681" cy="-167" rx="72.1249" ry="18.3848"/>
<text text-anchor="middle" x="681" y="-163.4" font-family="Times Roman,serif" font-size="14.00">Berkeley DB</text>
</g>
<!-- Berkeley DB&#45;&gt;apr&#45;util -->
<g id="edge16" class="edge"><title>Berkeley DB&#45;&gt;apr&#45;util</title>
<path fill="none" stroke="black" d="M627.872,-154.407C618.588,-152.244 609.017,-150.038 600,-148 529.918,-132.164 448.718,-114.661 397.606,-103.747"/>
<polygon fill="black" stroke="black" points="398.307,-100.318 387.797,-101.654 396.846,-107.164 398.307,-100.318"/>
</g>
</g>
</svg>
