<?xml version="1.0" encoding="UTF-8" standalone="no"?>
<!DOCTYPE svg PUBLIC "-//W3C//DTD SVG 1.1//EN"
 "http://www.w3.org/Graphics/SVG/1.1/DTD/svg11.dtd">
<!-- Generated by graphviz version 2.26.3 (20100126.1600)
 -->
<!-- Title: _anonymous_0 Pages: 1 -->
<svg width="739pt" height="268pt"
 viewBox="0.00 0.00 738.77 268.00" xmlns="http://www.w3.org/2000/svg" xmlns:xlink="http://www.w3.org/1999/xlink">
<g id="graph1" class="graph" transform="scale(1 1) rotate(0) translate(4 264)">
<title>_anonymous_0</title>
<polygon fill="white" stroke="white" points="-4,5 -4,-264 735.775,-264 735.775,5 -4,5"/>
<!-- zlib -->
<g id="node1" class="node"><title>zlib</title>
<ellipse fill="#b2dfee" stroke="#b2dfee" cx="163.775" cy="-241" rx="28.9914" ry="18.3848"/>
<text text-anchor="middle" x="163.775" y="-237.4" font-family="Times Roman,serif" font-size="14.00">zlib</text>
</g>
<!-- OpenSSL -->
<g id="node3" class="node"><title>OpenSSL</title>
<ellipse fill="#b2dfee" stroke="#b2dfee" cx="205.775" cy="-167" rx="56.0679" ry="18.3848"/>
<text text-anchor="middle" x="205.775" y="-163.4" font-family="Times Roman,serif" font-size="14.00">OpenSSL</text>
</g>
<!-- zlib&#45;&gt;OpenSSL -->
<g id="edge2" class="edge"><title>zlib&#45;&gt;OpenSSL</title>
<path fill="none" stroke="black" d="M173.728,-223.463C178.691,-214.718 184.806,-203.945 190.358,-194.162"/>
<polygon fill="black" stroke="black" points="193.562,-195.608 195.454,-185.184 187.474,-192.153 193.562,-195.608"/>
</g>
<!-- neon -->
<g id="node11" class="node"><title>neon</title>
<ellipse fill="#b2dfee" stroke="#b2dfee" cx="163.775" cy="-93" rx="36.0624" ry="18.3848"/>
<text text-anchor="middle" x="163.775" y="-89.4" font-family="Times Roman,serif" font-size="14.00">neon</text>
</g>
<!-- zlib&#45;&gt;neon -->
<g id="edge10" class="edge"><title>zlib&#45;&gt;neon</title>
<path fill="none" stroke="black" d="M154.23,-223.242C149.131,-212.739 143.381,-198.989 140.775,-186 137.452,-169.441 137.452,-164.559 140.775,-148 142.639,-138.71 146.111,-129.031 149.803,-120.429"/>
<polygon fill="black" stroke="black" points="153.023,-121.804 153.99,-111.253 146.654,-118.897 153.023,-121.804"/>
</g>
<!-- svn -->
<g id="node16" class="node"><title>svn</title>
<ellipse fill="#b2dfee" stroke="#b2dfee" cx="402.775" cy="-19" rx="28.9914" ry="18.3848"/>
<text text-anchor="middle" x="402.775" y="-15.4" font-family="Times Roman,serif" font-size="14.00">svn</text>
</g>
<!-- zlib&#45;&gt;svn -->
<g id="edge24" class="edge"><title>zlib&#45;&gt;svn</title>
<path fill="none" stroke="black" d="M136.151,-235.318C95.3189,-226.295 22.0211,-207.496 6.77463,-186 -2.99602,-172.224 -1.22528,-162.874 6.77463,-148 35.035,-95.4562 63.5384,-96.5492 118.775,-74 201.987,-40.0299 307.651,-26.6762 363.708,-21.7155"/>
<polygon fill="black" stroke="black" points="364.237,-25.1834 373.909,-20.8577 363.65,-18.2081 364.237,-25.1834"/>
</g>
<!-- serf -->
<g id="node17" class="node"><title>serf</title>
<ellipse fill="#b2dfee" stroke="#b2dfee" cx="298.775" cy="-93" rx="29.1951" ry="18.3848"/>
<text text-anchor="middle" x="298.775" y="-89.4" font-family="Times Roman,serif" font-size="14.00">serf</text>
</g>
<!-- zlib&#45;&gt;serf -->
<g id="edge36" class="edge"><title>zlib&#45;&gt;serf</title>
<path fill="none" stroke="black" d="M190.926,-233.691C215.206,-225.796 250.062,-210.882 270.775,-186 285.863,-167.875 292.822,-141.795 296.031,-121.863"/>
<polygon fill="black" stroke="black" points="299.521,-122.179 297.423,-111.794 292.587,-121.22 299.521,-122.179"/>
</g>
<!-- OpenSSL&#45;&gt;neon -->
<g id="edge12" class="edge"><title>OpenSSL&#45;&gt;neon</title>
<path fill="none" stroke="black" d="M195.393,-148.708C190.422,-139.951 184.375,-129.296 178.905,-119.659"/>
<polygon fill="black" stroke="black" points="181.872,-117.796 173.892,-110.826 175.784,-121.251 181.872,-117.796"/>
</g>
<!-- OpenSSL&#45;&gt;serf -->
<g id="edge38" class="edge"><title>OpenSSL&#45;&gt;serf</title>
<path fill="none" stroke="black" d="M227.344,-149.837C240.801,-139.13 258.212,-125.275 272.476,-113.926"/>
<polygon fill="black" stroke="black" points="274.81,-116.541 280.456,-107.576 270.452,-111.064 274.81,-116.541"/>
</g>
<!-- apr -->
<g id="node4" class="node"><title>apr</title>
<ellipse fill="#b2dfee" stroke="#b2dfee" cx="384.775" cy="-241" rx="27.0758" ry="18.3848"/>
<text text-anchor="middle" x="384.775" y="-237.4" font-family="Times Roman,serif" font-size="14.00">apr</text>
</g>
<!-- apr&#45;iconv -->
<g id="node6" class="node"><title>apr&#45;iconv</title>
<ellipse fill="#b2dfee" stroke="#b2dfee" cx="487.775" cy="-167" rx="56.0679" ry="18.3848"/>
<text text-anchor="middle" x="487.775" y="-163.4" font-family="Times Roman,serif" font-size="14.00">apr&#45;iconv</text>
</g>
<!-- apr&#45;&gt;apr&#45;iconv -->
<g id="edge4" class="edge"><title>apr&#45;&gt;apr&#45;iconv</title>
<path fill="none" stroke="black" d="M403.666,-227.427C418.206,-216.981 438.637,-202.302 455.722,-190.028"/>
<polygon fill="black" stroke="black" points="458.222,-192.541 464.302,-183.864 454.138,-186.856 458.222,-192.541"/>
</g>
<!-- apr&#45;util -->
<g id="node8" class="node"><title>apr&#45;util</title>
<ellipse fill="#b2dfee" stroke="#b2dfee" cx="439.775" cy="-93" rx="46.1672" ry="18.3848"/>
<text text-anchor="middle" x="439.775" y="-89.4" font-family="Times Roman,serif" font-size="14.00">apr&#45;util</text>
</g>
<!-- apr&#45;&gt;apr&#45;util -->
<g id="edge6" class="edge"><title>apr&#45;&gt;apr&#45;util</title>
<path fill="none" stroke="black" d="M391.519,-222.852C400.951,-197.471 418.172,-151.131 429.287,-121.222"/>
<polygon fill="black" stroke="black" points="432.599,-122.356 432.802,-111.763 426.038,-119.918 432.599,-122.356"/>
</g>
<!-- apr&#45;&gt;svn -->
<g id="edge20" class="edge"><title>apr&#45;&gt;svn</title>
<path fill="none" stroke="black" d="M382.87,-222.315C380.13,-191.282 376.282,-127.254 384.775,-74 386.23,-64.8721 388.964,-55.2016 391.87,-46.5574"/>
<polygon fill="black" stroke="black" points="395.225,-47.5699 395.294,-36.9753 388.633,-45.2147 395.225,-47.5699"/>
</g>
<!-- apr&#45;&gt;serf -->
<g id="edge34" class="edge"><title>apr&#45;&gt;serf</title>
<path fill="none" stroke="black" d="M374.271,-223.719C367.737,-212.914 359.195,-198.688 351.775,-186 338.692,-163.631 324.137,-138.039 313.595,-119.371"/>
<polygon fill="black" stroke="black" points="316.582,-117.542 308.622,-110.551 310.485,-120.98 316.582,-117.542"/>
</g>
<!-- apr&#45;iconv&#45;&gt;apr&#45;util -->
<g id="edge8" class="edge"><title>apr&#45;iconv&#45;&gt;apr&#45;util</title>
<path fill="none" stroke="black" d="M475.909,-148.708C470.213,-139.926 463.279,-129.236 457.014,-119.577"/>
<polygon fill="black" stroke="black" points="459.882,-117.567 451.503,-111.082 454.009,-121.376 459.882,-117.567"/>
</g>
<!-- apr&#45;util&#45;&gt;svn -->
<g id="edge22" class="edge"><title>apr&#45;util&#45;&gt;svn</title>
<path fill="none" stroke="black" d="M430.629,-74.7079C426.295,-66.0409 421.032,-55.5155 416.253,-45.9574"/>
<polygon fill="black" stroke="black" points="419.291,-44.2054 411.688,-36.8264 413.03,-47.3359 419.291,-44.2054"/>
</g>
<!-- neon&#45;&gt;svn -->
<g id="edge16" class="edge"><title>neon&#45;&gt;svn</title>
<path fill="none" stroke="black" d="M195.02,-83.3258C239.343,-69.6022 320.265,-44.5468 366.959,-30.0893"/>
<polygon fill="black" stroke="black" points="368.139,-33.3879 376.657,-27.0867 366.069,-26.7011 368.139,-33.3879"/>
</g>
<!-- expat -->
<g id="node13" class="node"><title>expat</title>
<ellipse fill="#b2dfee" stroke="#b2dfee" cx="54.7746" cy="-167" rx="39.0967" ry="18.3848"/>
<text text-anchor="middle" x="54.7746" y="-163.4" font-family="Times Roman,serif" font-size="14.00">expat</text>
</g>
<!-- expat&#45;&gt;neon -->
<g id="edge14" class="edge"><title>expat&#45;&gt;neon</title>
<path fill="none" stroke="black" d="M77.3595,-151.667C93.6503,-140.607 115.815,-125.56 133.618,-113.473"/>
<polygon fill="black" stroke="black" points="135.655,-116.321 141.962,-107.808 131.723,-110.529 135.655,-116.321"/>
</g>
<!-- serf&#45;&gt;svn -->
<g id="edge18" class="edge"><title>serf&#45;&gt;svn</title>
<path fill="none" stroke="black" d="M318.336,-79.0812C334.315,-67.7116 357.098,-51.5008 374.972,-38.7827"/>
<polygon fill="black" stroke="black" points="377.182,-41.5058 383.301,-32.8564 373.124,-35.8022 377.182,-41.5058"/>
</g>
<!-- SQLite -->
<g id="node22" class="node"><title>SQLite</title>
<ellipse fill="#b2dfee" stroke="#b2dfee" cx="547.775" cy="-93" rx="44.0472" ry="18.3848"/>
<text text-anchor="middle" x="547.775" y="-89.4" font-family="Times Roman,serif" font-size="14.00">SQLite</text>
</g>
<!-- SQLite&#45;&gt;svn -->
<g id="edge26" class="edge"><title>SQLite&#45;&gt;svn</title>
<path fill="none" stroke="black" d="M519.473,-78.5564C495.21,-66.174 460.268,-48.3413 434.948,-35.4196"/>
<polygon fill="black" stroke="black" points="436.256,-32.1576 425.758,-30.7294 433.074,-38.3926 436.256,-32.1576"/>
</g>
<!-- SASL -->
<g id="node24" class="node"><title>SASL</title>
<ellipse fill="#b2dfee" stroke="#b2dfee" cx="684.775" cy="-93" rx="36.977" ry="18.3848"/>
<text text-anchor="middle" x="684.775" y="-89.4" font-family="Times Roman,serif" font-size="14.00">SASL</text>
</g>
<!-- SASL&#45;&gt;svn -->
<g id="edge28" class="edge"><title>SASL&#45;&gt;svn</title>
<path fill="none" stroke="black" d="M655.589,-81.4256C648.507,-78.8122 640.916,-76.1715 633.775,-74 566.67,-53.596 486.733,-36.0205 440.658,-26.5257"/>
<polygon fill="black" stroke="black" points="441.304,-23.0854 430.805,-24.5124 439.902,-29.9437 441.304,-23.0854"/>
</g>
<!-- Berkeley DB -->
<g id="node26" class="node"><title>Berkeley DB</title>
<ellipse fill="#b2dfee" stroke="#b2dfee" cx="658.775" cy="-167" rx="72.1249" ry="18.3848"/>
<text text-anchor="middle" x="658.775" y="-163.4" font-family="Times Roman,serif" font-size="14.00">Berkeley DB</text>
</g>
<!-- Berkeley DB&#45;&gt;svn -->
<g id="edge30" class="edge"><title>Berkeley DB&#45;&gt;svn</title>
<path fill="none" stroke="black" d="M652.002,-148.374C643.354,-127.213 626.377,-93.1437 600.775,-74 553.526,-38.6703 484.701,-26.0342 441.889,-21.5152"/>
<polygon fill="black" stroke="black" points="442.145,-18.0238 431.857,-20.5548 441.478,-24.9919 442.145,-18.0238"/>
</g>
<!-- Berkeley DB&#45;&gt;SASL -->
<g id="edge32" class="edge"><title>Berkeley DB&#45;&gt;SASL</title>
<path fill="none" stroke="black" d="M665.336,-148.327C668.252,-140.026 671.747,-130.078 674.964,-120.921"/>
<polygon fill="black" stroke="black" points="678.293,-122.006 678.306,-111.411 671.689,-119.685 678.293,-122.006"/>
</g>
</g>
</svg>
