<?xml version="1.0" encoding="UTF-8" standalone="no"?>
<!DOCTYPE svg PUBLIC "-//W3C//DTD SVG 1.1//EN"
 "http://www.w3.org/Graphics/SVG/1.1/DTD/svg11.dtd">
<!-- Generated by graphviz version 2.29.20110630.0445 (20110630.0445)
 -->
<!-- Title: Dependency Graph Pages: 1 -->
<svg width="260pt" height="188pt"
 viewBox="0.00 0.00 260.00 188.00" xmlns="http://www.w3.org/2000/svg" xmlns:xlink="http://www.w3.org/1999/xlink">
<g id="graph1" class="graph" transform="scale(1 1) rotate(0) translate(4 184)">
<title>Dependency Graph</title>
<polygon fill="white" stroke="white" points="-4,5 -4,-184 257,-184 257,5 -4,5"/>
<!-- zlib -->
<g id="node1" class="node"><title>zlib</title>
<ellipse fill="none" stroke="black" cx="27" cy="-90" rx="27" ry="18"/>
<text text-anchor="middle" x="27" y="-86.3" font-family="Times New Roman,serif" font-size="14.00">zlib</text>
</g>
<!-- glib -->
<g id="node3" class="node"><title>glib</title>
<ellipse fill="none" stroke="black" cx="126" cy="-18" rx="27" ry="18"/>
<text text-anchor="middle" x="126" y="-14.3" font-family="Times New Roman,serif" font-size="14.00">glib</text>
</g>
<!-- zlib&#45;&gt;glib -->
<g id="edge2" class="edge"><title>zlib&#45;&gt;glib</title>
<path fill="none" stroke="black" d="M45.1581,-76.1609C60.3694,-65.4055 82.2887,-49.907 99.4668,-37.7609"/>
<polygon fill="black" stroke="black" points="101.813,-40.3888 107.957,-31.7577 97.7712,-34.6732 101.813,-40.3888"/>
</g>
<!-- libffi -->
<g id="node4" class="node"><title>libffi</title>
<ellipse fill="none" stroke="black" cx="99" cy="-90" rx="26.949" ry="18"/>
<text text-anchor="middle" x="99" y="-86.3" font-family="Times New Roman,serif" font-size="14.00">libffi</text>
</g>
<!-- libffi&#45;&gt;glib -->
<g id="edge4" class="edge"><title>libffi&#45;&gt;glib</title>
<path fill="none" stroke="black" d="M105.399,-72.411C108.514,-64.3352 112.334,-54.4312 115.835,-45.3547"/>
<polygon fill="black" stroke="black" points="119.126,-46.5458 119.46,-35.9562 112.595,-44.0267 119.126,-46.5458"/>
</g>
<!-- libiconv -->
<g id="node6" class="node"><title>libiconv</title>
<ellipse fill="none" stroke="black" cx="213" cy="-162" rx="39.4691" ry="18"/>
<text text-anchor="middle" x="213" y="-158.3" font-family="Times New Roman,serif" font-size="14.00">libiconv</text>
</g>
<!-- libiconv&#45;&gt;glib -->
<g id="edge6" class="edge"><title>libiconv&#45;&gt;glib</title>
<path fill="none" stroke="black" d="M199.682,-144.781C191.542,-134.532 181.163,-120.842 173,-108 159.951,-87.4696 147.195,-62.9478 138.272,-44.8476"/>
<polygon fill="black" stroke="black" points="141.255,-42.9788 133.732,-35.5187 134.961,-46.0421 141.255,-42.9788"/>
</g>
<!-- libintl -->
<g id="node9" class="node"><title>libintl</title>
<ellipse fill="none" stroke="black" cx="213" cy="-90" rx="30.3206" ry="18"/>
<text text-anchor="middle" x="213" y="-86.3" font-family="Times New Roman,serif" font-size="14.00">libintl</text>
</g>
<!-- libiconv&#45;&gt;libintl -->
<g id="edge8" class="edge"><title>libiconv&#45;&gt;libintl</title>
<path fill="none" stroke="black" d="M207.122,-144.055C206.291,-136.231 206.054,-126.748 206.41,-117.977"/>
<polygon fill="black" stroke="black" points="209.916,-118.013 207.138,-107.789 202.934,-117.514 209.916,-118.013"/>
</g>
<!-- libintl&#45;&gt;glib -->
<g id="edge9" class="edge"><title>libintl&#45;&gt;glib</title>
<path fill="none" stroke="black" d="M195.812,-75.1703C182.896,-64.7784 165.024,-50.3983 150.596,-38.7897"/>
<polygon fill="black" stroke="black" points="152.548,-35.868 142.562,-32.3261 148.16,-41.3218 152.548,-35.868"/>
</g>
<!-- libintl&#45;&gt;libiconv -->
<g id="edge11" class="edge"><title>libintl&#45;&gt;libiconv</title>
<path fill="none" stroke="red" stroke-dasharray="1,5" d="M218.862,-107.789C219.7,-115.591 219.945,-125.067 219.597,-133.848"/>
<polygon fill="red" stroke="red" points="216.089,-133.834 218.878,-144.055 223.072,-134.325 216.089,-133.834"/>
</g>
</g>
</svg>
