<?xml version="1.0" encoding="UTF-8" standalone="no"?>
<!DOCTYPE svg PUBLIC "-//W3C//DTD SVG 1.1//EN"
 "http://www.w3.org/Graphics/SVG/1.1/DTD/svg11.dtd">
<!-- Generated by graphviz version 2.30.1 (20130214.1330)
 -->
<!-- Title: Dependency Graph Pages: 1 -->
<svg width="350pt" height="116pt"
 viewBox="0.00 0.00 350.00 116.00" xmlns="http://www.w3.org/2000/svg" xmlns:xlink="http://www.w3.org/1999/xlink">
<g id="graph0" class="graph" transform="scale(1 1) rotate(0) translate(4 112)">
<title>Dependency Graph</title>
<polygon fill="white" stroke="white" points="-4,5 -4,-112 347,-112 347,5 -4,5"/>
<!-- fontconfig -->
<g id="node1" class="node"><title>fontconfig</title>
<ellipse fill="none" stroke="black" cx="48" cy="-90" rx="48.1437" ry="18"/>
<text text-anchor="middle" x="48" y="-86.3" font-family="Times New Roman,serif" font-size="14.00">fontconfig</text>
</g>
<!-- pango -->
<g id="node2" class="node"><title>pango</title>
<ellipse fill="none" stroke="black" cx="197" cy="-18" rx="33.2209" ry="18"/>
<text text-anchor="middle" x="197" y="-14.3" font-family="Times New Roman,serif" font-size="14.00">pango</text>
</g>
<!-- fontconfig&#45;&gt;pango -->
<g id="edge1" class="edge"><title>fontconfig&#45;&gt;pango</title>
<path fill="none" stroke="black" d="M76.7287,-75.5033C101.583,-63.8267 137.534,-46.9369 163.652,-34.6666"/>
<polygon fill="black" stroke="black" points="165.229,-37.7932 172.791,-30.3732 162.252,-31.4576 165.229,-37.7932"/>
</g>
<!-- freetype -->
<g id="node3" class="node"><title>freetype</title>
<ellipse fill="none" stroke="black" cx="154" cy="-90" rx="39.9464" ry="18"/>
<text text-anchor="middle" x="154" y="-86.3" font-family="Times New Roman,serif" font-size="14.00">freetype</text>
</g>
<!-- freetype&#45;&gt;pango -->
<g id="edge2" class="edge"><title>freetype&#45;&gt;pango</title>
<path fill="none" stroke="black" d="M164.19,-72.411C169.385,-63.9549 175.811,-53.4944 181.595,-44.0783"/>
<polygon fill="black" stroke="black" points="184.631,-45.8227 186.883,-35.4699 178.666,-42.1587 184.631,-45.8227"/>
</g>
<!-- cairo -->
<g id="node4" class="node"><title>cairo</title>
<ellipse fill="none" stroke="black" cx="241" cy="-90" rx="28.3955" ry="18"/>
<text text-anchor="middle" x="241" y="-86.3" font-family="Times New Roman,serif" font-size="14.00">cairo</text>
</g>
<!-- cairo&#45;&gt;pango -->
<g id="edge3" class="edge"><title>cairo&#45;&gt;pango</title>
<path fill="none" stroke="black" d="M231.016,-73.1159C225.58,-64.4685 218.733,-53.5754 212.609,-43.833"/>
<polygon fill="black" stroke="black" points="215.535,-41.9108 207.25,-35.307 209.609,-45.636 215.535,-41.9108"/>
</g>
<!-- glib -->
<g id="node5" class="node"><title>glib</title>
<ellipse fill="none" stroke="black" cx="315" cy="-90" rx="27" ry="18"/>
<text text-anchor="middle" x="315" y="-86.3" font-family="Times New Roman,serif" font-size="14.00">glib</text>
</g>
<!-- glib&#45;&gt;pango -->
<g id="edge4" class="edge"><title>glib&#45;&gt;pango</title>
<path fill="none" stroke="black" d="M295.515,-77.4409C276.957,-66.4321 248.746,-49.6969 227.262,-36.9522"/>
<polygon fill="black" stroke="black" points="228.901,-33.8546 218.514,-31.7628 225.329,-39.875 228.901,-33.8546"/>
</g>
</g>
</svg>
