<?xml version="1.0" encoding="UTF-8" standalone="no"?>
<!DOCTYPE svg PUBLIC "-//W3C//DTD SVG 1.1//EN"
 "http://www.w3.org/Graphics/SVG/1.1/DTD/svg11.dtd">
<!-- Generated by graphviz version 2.30.1 (20130214.1330)
 -->
<!-- Title: Dependency Graph Pages: 1 -->
<svg width="552pt" height="188pt"
 viewBox="0.00 0.00 552.00 188.00" xmlns="http://www.w3.org/2000/svg" xmlns:xlink="http://www.w3.org/1999/xlink">
<g id="graph0" class="graph" transform="scale(1 1) rotate(0) translate(4 184)">
<title>Dependency Graph</title>
<polygon fill="white" stroke="white" points="-4,5 -4,-184 549,-184 549,5 -4,5"/>
<!-- glib -->
<g id="node1" class="node"><title>glib</title>
<ellipse fill="none" stroke="black" cx="27" cy="-90" rx="27" ry="18"/>
<text text-anchor="middle" x="27" y="-86.3" font-family="Times New Roman,serif" font-size="14.00">glib</text>
</g>
<!-- qemu -->
<g id="node2" class="node"><title>qemu</title>
<ellipse fill="none" stroke="black" cx="241" cy="-18" rx="30.3206" ry="18"/>
<text text-anchor="middle" x="241" y="-14.3" font-family="Times New Roman,serif" font-size="14.00">qemu</text>
</g>
<!-- glib&#45;&gt;qemu -->
<g id="edge1" class="edge"><title>glib&#45;&gt;qemu</title>
<path fill="none" stroke="black" d="M48.9779,-79.4329C55.0908,-76.8965 61.764,-74.2422 68,-72 114.409,-55.3129 168.963,-39.1593 204.216,-29.1612"/>
<polygon fill="black" stroke="black" points="205.39,-32.467 214.065,-26.3857 203.491,-25.7294 205.39,-32.467"/>
</g>
<!-- libpng -->
<g id="node3" class="node"><title>libpng</title>
<ellipse fill="none" stroke="black" cx="241" cy="-90" rx="33.2209" ry="18"/>
<text text-anchor="middle" x="241" y="-86.3" font-family="Times New Roman,serif" font-size="14.00">libpng</text>
</g>
<!-- libpng&#45;&gt;qemu -->
<g id="edge2" class="edge"><title>libpng&#45;&gt;qemu</title>
<path fill="none" stroke="black" d="M241,-71.6966C241,-63.9827 241,-54.7125 241,-46.1124"/>
<polygon fill="black" stroke="black" points="244.5,-46.1043 241,-36.1043 237.5,-46.1044 244.5,-46.1043"/>
</g>
<!-- libjpeg -->
<g id="node4" class="node"><title>libjpeg</title>
<ellipse fill="none" stroke="black" cx="418" cy="-90" rx="34.1708" ry="18"/>
<text text-anchor="middle" x="418" y="-86.3" font-family="Times New Roman,serif" font-size="14.00">libjpeg</text>
</g>
<!-- libjpeg&#45;&gt;qemu -->
<g id="edge3" class="edge"><title>libjpeg&#45;&gt;qemu</title>
<path fill="none" stroke="black" d="M391.501,-78.5203C360.517,-66.2665 309.156,-45.9542 275.192,-32.5222"/>
<polygon fill="black" stroke="black" points="276.265,-29.1829 265.679,-28.76 273.691,-35.6924 276.265,-29.1829"/>
</g>
<!-- libSDL -->
<g id="node5" class="node"><title>libSDL</title>
<ellipse fill="none" stroke="black" cx="329" cy="-90" rx="36.096" ry="18"/>
<text text-anchor="middle" x="329" y="-86.3" font-family="Times New Roman,serif" font-size="14.00">libSDL</text>
</g>
<!-- libSDL&#45;&gt;qemu -->
<g id="edge4" class="edge"><title>libSDL&#45;&gt;qemu</title>
<path fill="none" stroke="black" d="M310.337,-74.1548C297.516,-63.9561 280.341,-50.294 266.292,-39.1189"/>
<polygon fill="black" stroke="black" points="268.443,-36.3577 258.439,-32.8716 264.086,-41.836 268.443,-36.3577"/>
</g>
<!-- pixman -->
<g id="node6" class="node"><title>pixman</title>
<ellipse fill="none" stroke="black" cx="507" cy="-90" rx="37.0701" ry="18"/>
<text text-anchor="middle" x="507" y="-86.3" font-family="Times New Roman,serif" font-size="14.00">pixman</text>
</g>
<!-- pixman&#45;&gt;qemu -->
<g id="edge5" class="edge"><title>pixman&#45;&gt;qemu</title>
<path fill="none" stroke="black" d="M478.959,-78.0418C473.07,-75.9084 466.865,-73.7834 461,-72 398.19,-52.9002 323.64,-36.1529 279.439,-26.8249"/>
<polygon fill="black" stroke="black" points="279.921,-23.3499 269.416,-24.7272 278.487,-30.2014 279.921,-23.3499"/>
</g>
<!-- zlib -->
<g id="node7" class="node"><title>zlib</title>
<ellipse fill="none" stroke="black" cx="195" cy="-162" rx="27" ry="18"/>
<text text-anchor="middle" x="195" y="-158.3" font-family="Times New Roman,serif" font-size="14.00">zlib</text>
</g>
<!-- zlib&#45;&gt;qemu -->
<g id="edge6" class="edge"><title>zlib&#45;&gt;qemu</title>
<path fill="none" stroke="black" d="M169.924,-154.609C147.423,-147.396 115.742,-133.236 101,-108 92.9294,-94.1846 91.9071,-85.165 101,-72 123.257,-39.776 167.82,-27.1243 200.718,-22.1684"/>
<polygon fill="black" stroke="black" points="201.491,-25.5966 210.946,-20.8147 200.573,-18.6571 201.491,-25.5966"/>
</g>
<!-- freetype -->
<g id="node8" class="node"><title>freetype</title>
<ellipse fill="none" stroke="black" cx="150" cy="-90" rx="39.9464" ry="18"/>
<text text-anchor="middle" x="150" y="-86.3" font-family="Times New Roman,serif" font-size="14.00">freetype</text>
</g>
<!-- zlib&#45;&gt;freetype -->
<g id="edge8" class="edge"><title>zlib&#45;&gt;freetype</title>
<path fill="none" stroke="black" d="M184.789,-145.116C179.309,-136.592 172.427,-125.886 166.233,-116.251"/>
<polygon fill="black" stroke="black" points="169.15,-114.316 160.798,-107.797 163.262,-118.102 169.15,-114.316"/>
</g>
<!-- zlib&#45;&gt;libpng -->
<g id="edge9" class="edge"><title>zlib&#45;&gt;libpng</title>
<path fill="none" stroke="black" d="M205.438,-145.116C211.121,-136.469 218.279,-125.575 224.681,-115.833"/>
<polygon fill="black" stroke="black" points="227.717,-117.586 230.284,-107.307 221.867,-113.742 227.717,-117.586"/>
</g>
<!-- zlib&#45;&gt;libSDL -->
<g id="edge10" class="edge"><title>zlib&#45;&gt;libSDL</title>
<path fill="none" stroke="black" d="M215.644,-150.216C236.996,-139.062 270.668,-121.472 295.773,-108.357"/>
<polygon fill="black" stroke="black" points="297.689,-111.305 304.932,-103.573 294.448,-105.101 297.689,-111.305"/>
</g>
<!-- freetype&#45;&gt;qemu -->
<g id="edge7" class="edge"><title>freetype&#45;&gt;qemu</title>
<path fill="none" stroke="black" d="M169.299,-74.1548C182.644,-63.889 200.552,-50.114 215.132,-38.8987"/>
<polygon fill="black" stroke="black" points="217.48,-41.5082 223.272,-32.6369 213.212,-35.9598 217.48,-41.5082"/>
</g>
</g>
</svg>
