<?xml version="1.0" encoding="UTF-8" standalone="no"?>
<!DOCTYPE svg PUBLIC "-//W3C//DTD SVG 1.1//EN"
 "http://www.w3.org/Graphics/SVG/1.1/DTD/svg11.dtd">
<!-- Generated by graphviz version 2.26.3 (20100126.1600)
 -->
<!-- Title: Dependency Graph Pages: 1 -->
<svg width="626pt" height="188pt"
 viewBox="0.00 0.00 626.00 188.00" xmlns="http://www.w3.org/2000/svg" xmlns:xlink="http://www.w3.org/1999/xlink">
<g id="graph1" class="graph" transform="scale(1 1) rotate(0) translate(4 184)">
<title>Dependency Graph</title>
<polygon fill="white" stroke="white" points="-4,5 -4,-184 623,-184 623,5 -4,5"/>
<!-- zlib -->
<g id="node1" class="node"><title>zlib</title>
<ellipse fill="none" stroke="black" cx="165" cy="-162" rx="27.9903" ry="18"/>
<text text-anchor="middle" x="165" y="-157.9" font-family="Times Roman,serif" font-size="14.00">zlib</text>
</g>
<!-- libSDL -->
<g id="node3" class="node"><title>libSDL</title>
<ellipse fill="none" stroke="black" cx="42" cy="-90" rx="41.8891" ry="18"/>
<text text-anchor="middle" x="42" y="-85.9" font-family="Times Roman,serif" font-size="14.00">libSDL</text>
</g>
<!-- zlib&#45;&gt;libSDL -->
<g id="edge2" class="edge"><title>zlib&#45;&gt;libSDL</title>
<path fill="none" stroke="black" d="M144.135,-149.786C125.46,-138.855 97.7381,-122.627 75.8861,-109.836"/>
<polygon fill="black" stroke="black" points="77.6255,-106.798 67.2272,-104.767 74.0892,-112.84 77.6255,-106.798"/>
</g>
<!-- libpng -->
<g id="node5" class="node"><title>libpng</title>
<ellipse fill="none" stroke="black" cx="142" cy="-90" rx="39.8056" ry="18"/>
<text text-anchor="middle" x="142" y="-85.9" font-family="Times Roman,serif" font-size="14.00">libpng</text>
</g>
<!-- zlib&#45;&gt;libpng -->
<g id="edge4" class="edge"><title>zlib&#45;&gt;libpng</title>
<path fill="none" stroke="black" d="M159.315,-144.202C156.744,-136.154 153.647,-126.459 150.787,-117.507"/>
<polygon fill="black" stroke="black" points="154.077,-116.303 147.7,-107.843 147.409,-118.433 154.077,-116.303"/>
</g>
<!-- glib -->
<g id="node11" class="node"><title>glib</title>
<ellipse fill="none" stroke="black" cx="266" cy="-90" rx="27.9903" ry="18"/>
<text text-anchor="middle" x="266" y="-85.9" font-family="Times Roman,serif" font-size="14.00">glib</text>
</g>
<!-- zlib&#45;&gt;glib -->
<g id="edge10" class="edge"><title>zlib&#45;&gt;glib</title>
<path fill="none" stroke="black" d="M183.997,-148.457C199.374,-137.496 221.239,-121.909 238.525,-109.586"/>
<polygon fill="black" stroke="black" points="240.977,-112.137 247.088,-103.482 236.913,-106.437 240.977,-112.137"/>
</g>
<!-- qemu -->
<g id="node16" class="node"><title>qemu</title>
<ellipse fill="none" stroke="black" cx="238" cy="-18" rx="38.2185" ry="18"/>
<text text-anchor="middle" x="238" y="-13.9" font-family="Times Roman,serif" font-size="14.00">qemu</text>
</g>
<!-- zlib&#45;&gt;qemu -->
<g id="edge26" class="edge"><title>zlib&#45;&gt;qemu</title>
<path fill="none" stroke="black" d="M173.806,-144.63C186.343,-119.898 209.457,-74.3034 224.26,-45.1034"/>
<polygon fill="black" stroke="black" points="227.534,-46.3851 228.934,-35.8831 221.291,-43.2199 227.534,-46.3851"/>
</g>
<!-- libSDL&#45;&gt;qemu -->
<g id="edge22" class="edge"><title>libSDL&#45;&gt;qemu</title>
<path fill="none" stroke="black" d="M73.927,-78.2717C107.882,-65.7983 161.647,-46.0481 198.306,-32.5813"/>
<polygon fill="black" stroke="black" points="199.518,-35.8649 207.698,-29.1313 197.105,-29.2942 199.518,-35.8649"/>
</g>
<!-- libpng&#45;&gt;qemu -->
<g id="edge18" class="edge"><title>libpng&#45;&gt;qemu</title>
<path fill="none" stroke="black" d="M162.831,-74.3771C176.383,-64.2125 194.245,-50.8162 209.156,-39.6328"/>
<polygon fill="black" stroke="black" points="211.64,-42.1451 217.54,-33.3451 207.44,-36.5451 211.64,-42.1451"/>
</g>
<!-- libiconv -->
<g id="node6" class="node"><title>libiconv</title>
<ellipse fill="none" stroke="black" cx="359" cy="-90" rx="46.7546" ry="18"/>
<text text-anchor="middle" x="359" y="-85.9" font-family="Times Roman,serif" font-size="14.00">libiconv</text>
</g>
<!-- libintl -->
<g id="node8" class="node"><title>libintl</title>
<ellipse fill="none" stroke="black" cx="359" cy="-162" rx="38.2185" ry="18"/>
<text text-anchor="middle" x="359" y="-157.9" font-family="Times Roman,serif" font-size="14.00">libintl</text>
</g>
<!-- libiconv&#45;&gt;libintl -->
<g id="edge6" class="edge"><title>libiconv&#45;&gt;libintl</title>
<path fill="none" stroke="red" d="M364.945,-108.093C365.715,-115.948 365.933,-125.328 365.598,-134.045"/>
<polygon fill="red" stroke="red" points="362.094,-133.99 364.916,-144.202 369.078,-134.459 362.094,-133.99"/>
</g>
<!-- libintl&#45;&gt;libiconv -->
<g id="edge8" class="edge"><title>libintl&#45;&gt;libiconv</title>
<path fill="none" stroke="blue" stroke-dasharray="1,5" d="M353.084,-144.202C352.3,-136.386 352.069,-127.017 352.39,-118.284"/>
<polygon fill="blue" stroke="blue" points="355.896,-118.3 353.055,-108.093 348.911,-117.844 355.896,-118.3"/>
</g>
<!-- libintl&#45;&gt;glib -->
<g id="edge14" class="edge"><title>libintl&#45;&gt;glib</title>
<path fill="none" stroke="black" d="M338.82,-146.377C325.155,-135.798 306.968,-121.717 292.188,-110.275"/>
<polygon fill="black" stroke="black" points="293.99,-107.243 283.94,-103.889 289.705,-112.778 293.99,-107.243"/>
</g>
<!-- glib&#45;&gt;qemu -->
<g id="edge16" class="edge"><title>glib&#45;&gt;qemu</title>
<path fill="none" stroke="black" d="M259.079,-72.2022C255.915,-64.0675 252.097,-54.2501 248.585,-45.2181"/>
<polygon fill="black" stroke="black" points="251.825,-43.894 244.939,-35.8425 245.301,-46.4312 251.825,-43.894"/>
</g>
<!-- libffi -->
<g id="node12" class="node"><title>libffi</title>
<ellipse fill="none" stroke="black" cx="266" cy="-162" rx="31.9646" ry="18"/>
<text text-anchor="middle" x="266" y="-157.9" font-family="Times Roman,serif" font-size="14.00">libffi</text>
</g>
<!-- libffi&#45;&gt;glib -->
<g id="edge12" class="edge"><title>libffi&#45;&gt;glib</title>
<path fill="none" stroke="black" d="M266,-143.831C266,-136.131 266,-126.974 266,-118.417"/>
<polygon fill="black" stroke="black" points="269.5,-118.413 266,-108.413 262.5,-118.413 269.5,-118.413"/>
</g>
<!-- libjpeg -->
<g id="node18" class="node"><title>libjpeg</title>
<ellipse fill="none" stroke="black" cx="466" cy="-90" rx="41.8891" ry="18"/>
<text text-anchor="middle" x="466" y="-85.9" font-family="Times Roman,serif" font-size="14.00">libjpeg</text>
</g>
<!-- libjpeg&#45;&gt;qemu -->
<g id="edge20" class="edge"><title>libjpeg&#45;&gt;qemu</title>
<path fill="none" stroke="black" d="M433.697,-78.3624C427.507,-76.1995 421.065,-73.9945 415,-72 369.11,-56.9093 316.064,-40.9165 280.101,-30.2874"/>
<polygon fill="black" stroke="black" points="281.012,-26.9072 270.43,-27.4369 279.033,-33.6215 281.012,-26.9072"/>
</g>
<!-- pixman -->
<g id="node21" class="node"><title>pixman</title>
<ellipse fill="none" stroke="black" cx="572" cy="-90" rx="46.0565" ry="18"/>
<text text-anchor="middle" x="572" y="-85.9" font-family="Times Roman,serif" font-size="14.00">pixman</text>
</g>
<!-- pixman&#45;&gt;qemu -->
<g id="edge24" class="edge"><title>pixman&#45;&gt;qemu</title>
<path fill="none" stroke="black" d="M537.575,-78.0036C530.799,-75.8499 523.71,-73.7402 517,-72 436.075,-51.0141 340.04,-34.1505 284.355,-25.1468"/>
<polygon fill="black" stroke="black" points="284.868,-21.6844 274.44,-23.5579 283.76,-28.5962 284.868,-21.6844"/>
</g>
</g>
</svg>
