<?xml version="1.0" encoding="UTF-8" standalone="no"?>
<!DOCTYPE svg PUBLIC "-//W3C//DTD SVG 1.1//EN"
 "http://www.w3.org/Graphics/SVG/1.1/DTD/svg11.dtd">
<!-- Generated by graphviz version 2.30.1 (20130214.1330)
 -->
<!-- Title: gtk+ dependency graph Pages: 1 -->
<svg width="633pt" height="404pt"
 viewBox="0.00 0.00 632.75 404.00" xmlns="http://www.w3.org/2000/svg" xmlns:xlink="http://www.w3.org/1999/xlink">
<g id="graph0" class="graph" transform="scale(1 1) rotate(0) translate(4 400)">
<title>gtk+ dependency graph</title>
<polygon fill="white" stroke="white" points="-4,5 -4,-400 629.752,-400 629.752,5 -4,5"/>
<!-- libiconv -->
<g id="node1" class="node"><title>libiconv</title>
<ellipse fill="none" stroke="black" cx="80.7523" cy="-306" rx="39.4691" ry="18"/>
<text text-anchor="middle" x="80.7523" y="-302.3" font-family="Times New Roman,serif" font-size="14.00">libiconv</text>
</g>
<!-- libintl -->
<g id="node2" class="node"><title>libintl</title>
<ellipse fill="none" stroke="black" cx="80.7523" cy="-234" rx="30.3206" ry="18"/>
<text text-anchor="middle" x="80.7523" y="-230.3" font-family="Times New Roman,serif" font-size="14.00">libintl</text>
</g>
<!-- libiconv&#45;&gt;libintl -->
<g id="edge1" class="edge"><title>libiconv&#45;&gt;libintl</title>
<path fill="none" stroke="red" d="M74.874,-288.055C74.0437,-280.231 73.8065,-270.748 74.1624,-261.977"/>
<polygon fill="red" stroke="red" points="77.6687,-262.013 74.8907,-251.789 70.6865,-261.514 77.6687,-262.013"/>
</g>
<!-- libintl&#45;&gt;libiconv -->
<g id="edge2" class="edge"><title>libintl&#45;&gt;libiconv</title>
<path fill="none" stroke="blue" stroke-dasharray="1,5" d="M86.6138,-251.789C87.452,-259.591 87.6971,-269.067 87.3491,-277.848"/>
<polygon fill="blue" stroke="blue" points="83.8415,-277.834 86.6305,-288.055 90.8243,-278.325 83.8415,-277.834"/>
</g>
<!-- glib -->
<g id="node4" class="node"><title>glib</title>
<ellipse fill="none" stroke="black" cx="189.752" cy="-162" rx="27" ry="18"/>
<text text-anchor="middle" x="189.752" y="-158.3" font-family="Times New Roman,serif" font-size="14.00">glib</text>
</g>
<!-- libintl&#45;&gt;glib -->
<g id="edge5" class="edge"><title>libintl&#45;&gt;glib</title>
<path fill="none" stroke="black" d="M100.491,-220.324C117.757,-209.236 143.011,-193.018 162.254,-180.659"/>
<polygon fill="black" stroke="black" points="164.366,-183.463 170.889,-175.114 160.584,-177.572 164.366,-183.463"/>
</g>
<!-- libgdk_pixbuf -->
<g id="node10" class="node"><title>libgdk_pixbuf</title>
<ellipse fill="none" stroke="black" cx="82.7523" cy="-90" rx="61.6163" ry="18"/>
<text text-anchor="middle" x="82.7523" y="-86.3" font-family="Times New Roman,serif" font-size="14.00">libgdk_pixbuf</text>
</g>
<!-- libintl&#45;&gt;libgdk_pixbuf -->
<g id="edge11" class="edge"><title>libintl&#45;&gt;libgdk_pixbuf</title>
<path fill="none" stroke="black" d="M80.9935,-215.871C81.3344,-191.67 81.9606,-147.211 82.3664,-118.393"/>
<polygon fill="black" stroke="black" points="85.8689,-118.238 82.5102,-108.189 78.8696,-118.139 85.8689,-118.238"/>
</g>
<!-- gtk+ -->
<g id="node15" class="node"><title>gtk+</title>
<ellipse fill="none" stroke="black" cx="216.752" cy="-18" rx="26.949" ry="18"/>
<text text-anchor="middle" x="216.752" y="-14.3" font-family="Times New Roman,serif" font-size="14.00">gtk+</text>
</g>
<!-- libintl&#45;&gt;gtk+ -->
<g id="edge24" class="edge"><title>libintl&#45;&gt;gtk+</title>
<path fill="none" stroke="black" d="M65.1444,-218.38C35.093,-188.466 -24.7401,-119.127 11.7523,-72 32.1664,-45.6369 126.588,-30.0231 179.879,-23.1623"/>
<polygon fill="black" stroke="black" points="180.465,-26.6165 189.955,-21.9063 179.599,-19.6703 180.465,-26.6165"/>
</g>
<!-- zlib -->
<g id="node3" class="node"><title>zlib</title>
<ellipse fill="none" stroke="black" cx="434.752" cy="-378" rx="27" ry="18"/>
<text text-anchor="middle" x="434.752" y="-374.3" font-family="Times New Roman,serif" font-size="14.00">zlib</text>
</g>
<!-- zlib&#45;&gt;glib -->
<g id="edge3" class="edge"><title>zlib&#45;&gt;glib</title>
<path fill="none" stroke="black" d="M408.222,-373.827C352.117,-365.523 222.138,-337.512 167.752,-252 155.33,-232.468 164.122,-206.406 174.033,-187.536"/>
<polygon fill="black" stroke="black" points="177.18,-189.081 179.056,-178.654 171.087,-185.636 177.18,-189.081"/>
</g>
<!-- freetype -->
<g id="node7" class="node"><title>freetype</title>
<ellipse fill="none" stroke="black" cx="584.752" cy="-306" rx="39.9464" ry="18"/>
<text text-anchor="middle" x="584.752" y="-302.3" font-family="Times New Roman,serif" font-size="14.00">freetype</text>
</g>
<!-- zlib&#45;&gt;freetype -->
<g id="edge7" class="edge"><title>zlib&#45;&gt;freetype</title>
<path fill="none" stroke="black" d="M456.244,-366.971C480.334,-355.728 519.793,-337.314 548.641,-323.852"/>
<polygon fill="black" stroke="black" points="550.398,-326.894 557.98,-319.494 547.438,-320.551 550.398,-326.894"/>
</g>
<!-- cairo -->
<g id="node11" class="node"><title>cairo</title>
<ellipse fill="none" stroke="black" cx="369.752" cy="-162" rx="28.3955" ry="18"/>
<text text-anchor="middle" x="369.752" y="-158.3" font-family="Times New Roman,serif" font-size="14.00">cairo</text>
</g>
<!-- zlib&#45;&gt;cairo -->
<g id="edge16" class="edge"><title>zlib&#45;&gt;cairo</title>
<path fill="none" stroke="black" d="M435.948,-359.687C437.364,-329.222 437.255,-264.655 415.752,-216 410.572,-204.278 401.882,-193.241 393.442,-184.305"/>
<polygon fill="black" stroke="black" points="395.724,-181.636 386.184,-177.028 390.768,-186.58 395.724,-181.636"/>
</g>
<!-- atk -->
<g id="node6" class="node"><title>atk</title>
<ellipse fill="none" stroke="black" cx="189.752" cy="-90" rx="27" ry="18"/>
<text text-anchor="middle" x="189.752" y="-86.3" font-family="Times New Roman,serif" font-size="14.00">atk</text>
</g>
<!-- glib&#45;&gt;atk -->
<g id="edge6" class="edge"><title>glib&#45;&gt;atk</title>
<path fill="none" stroke="black" d="M189.752,-143.697C189.752,-135.983 189.752,-126.712 189.752,-118.112"/>
<polygon fill="black" stroke="black" points="193.252,-118.104 189.752,-108.104 186.252,-118.104 193.252,-118.104"/>
</g>
<!-- glib&#45;&gt;libgdk_pixbuf -->
<g id="edge10" class="edge"><title>glib&#45;&gt;libgdk_pixbuf</title>
<path fill="none" stroke="black" d="M171.114,-148.807C155.781,-138.776 133.679,-124.317 115.417,-112.37"/>
<polygon fill="black" stroke="black" points="117.091,-109.282 106.807,-106.737 113.259,-115.14 117.091,-109.282"/>
</g>
<!-- pango -->
<g id="node14" class="node"><title>pango</title>
<ellipse fill="none" stroke="black" cx="305.752" cy="-90" rx="33.2209" ry="18"/>
<text text-anchor="middle" x="305.752" y="-86.3" font-family="Times New Roman,serif" font-size="14.00">pango</text>
</g>
<!-- glib&#45;&gt;pango -->
<g id="edge19" class="edge"><title>glib&#45;&gt;pango</title>
<path fill="none" stroke="black" d="M209.168,-149.284C227.259,-138.367 254.515,-121.919 275.465,-109.276"/>
<polygon fill="black" stroke="black" points="277.548,-112.108 284.302,-103.944 273.932,-106.114 277.548,-112.108"/>
</g>
<!-- glib&#45;&gt;gtk+ -->
<g id="edge23" class="edge"><title>glib&#45;&gt;gtk+</title>
<path fill="none" stroke="black" d="M203.503,-146.069C211.713,-136.1 221.371,-122.247 225.752,-108 232.01,-87.6495 228.985,-63.5715 224.824,-45.5945"/>
<polygon fill="black" stroke="black" points="228.183,-44.6036 222.304,-35.7893 221.403,-46.3457 228.183,-44.6036"/>
</g>
<!-- libffi -->
<g id="node5" class="node"><title>libffi</title>
<ellipse fill="none" stroke="black" cx="203.752" cy="-234" rx="26.949" ry="18"/>
<text text-anchor="middle" x="203.752" y="-230.3" font-family="Times New Roman,serif" font-size="14.00">libffi</text>
</g>
<!-- libffi&#45;&gt;glib -->
<g id="edge4" class="edge"><title>libffi&#45;&gt;glib</title>
<path fill="none" stroke="black" d="M200.363,-216.055C198.821,-208.346 196.958,-199.027 195.225,-190.364"/>
<polygon fill="black" stroke="black" points="198.601,-189.395 193.207,-180.275 191.737,-190.768 198.601,-189.395"/>
</g>
<!-- libffi&#45;&gt;pango -->
<g id="edge18" class="edge"><title>libffi&#45;&gt;pango</title>
<path fill="none" stroke="black" d="M214.862,-217.533C232.456,-193.04 266.889,-145.103 287.955,-115.777"/>
<polygon fill="black" stroke="black" points="291.038,-117.483 294.03,-107.32 285.353,-113.399 291.038,-117.483"/>
</g>
<!-- atk&#45;&gt;gtk+ -->
<g id="edge22" class="edge"><title>atk&#45;&gt;gtk+</title>
<path fill="none" stroke="black" d="M196.151,-72.411C199.266,-64.3352 203.086,-54.4312 206.587,-45.3547"/>
<polygon fill="black" stroke="black" points="209.879,-46.5458 210.212,-35.9562 203.348,-44.0267 209.879,-46.5458"/>
</g>
<!-- fontconfig -->
<g id="node9" class="node"><title>fontconfig</title>
<ellipse fill="none" stroke="black" cx="510.752" cy="-234" rx="48.1437" ry="18"/>
<text text-anchor="middle" x="510.752" y="-230.3" font-family="Times New Roman,serif" font-size="14.00">fontconfig</text>
</g>
<!-- freetype&#45;&gt;fontconfig -->
<g id="edge9" class="edge"><title>freetype&#45;&gt;fontconfig</title>
<path fill="none" stroke="black" d="M568.329,-289.465C558.598,-280.26 546.083,-268.421 535.208,-258.134"/>
<polygon fill="black" stroke="black" points="537.312,-255.307 527.642,-250.977 532.502,-260.392 537.312,-255.307"/>
</g>
<!-- freetype&#45;&gt;cairo -->
<g id="edge13" class="edge"><title>freetype&#45;&gt;cairo</title>
<path fill="none" stroke="black" d="M586.469,-287.896C587.465,-268.02 585.854,-235.47 567.752,-216 546.104,-192.715 458.209,-176.114 407.096,-168.211"/>
<polygon fill="black" stroke="black" points="407.499,-164.732 397.089,-166.702 406.455,-171.654 407.499,-164.732"/>
</g>
<!-- expat -->
<g id="node8" class="node"><title>expat</title>
<ellipse fill="none" stroke="black" cx="495.752" cy="-306" rx="30.3206" ry="18"/>
<text text-anchor="middle" x="495.752" y="-302.3" font-family="Times New Roman,serif" font-size="14.00">expat</text>
</g>
<!-- expat&#45;&gt;fontconfig -->
<g id="edge8" class="edge"><title>expat&#45;&gt;fontconfig</title>
<path fill="none" stroke="black" d="M499.383,-288.055C501.054,-280.261 503.076,-270.822 504.95,-262.079"/>
<polygon fill="black" stroke="black" points="508.377,-262.787 507.05,-252.275 501.533,-261.32 508.377,-262.787"/>
</g>
<!-- fontconfig&#45;&gt;cairo -->
<g id="edge12" class="edge"><title>fontconfig&#45;&gt;cairo</title>
<path fill="none" stroke="black" d="M482.895,-219.17C459.231,-207.422 425.298,-190.576 400.773,-178.4"/>
<polygon fill="black" stroke="black" points="402.063,-175.133 391.549,-173.821 398.95,-181.403 402.063,-175.133"/>
</g>
<!-- libgdk_pixbuf&#45;&gt;gtk+ -->
<g id="edge20" class="edge"><title>libgdk_pixbuf&#45;&gt;gtk+</title>
<path fill="none" stroke="black" d="M111.499,-73.9832C133.704,-62.3834 164.34,-46.3796 186.835,-34.6286"/>
<polygon fill="black" stroke="black" points="188.686,-37.6105 195.929,-29.8781 185.444,-31.4061 188.686,-37.6105"/>
</g>
<!-- cairo&#45;&gt;pango -->
<g id="edge17" class="edge"><title>cairo&#45;&gt;pango</title>
<path fill="none" stroke="black" d="M356.18,-146.155C347.759,-136.944 336.755,-124.909 327.176,-114.432"/>
<polygon fill="black" stroke="black" points="329.526,-111.815 320.195,-106.797 324.36,-116.539 329.526,-111.815"/>
</g>
<!-- cairo&#45;&gt;gtk+ -->
<g id="edge21" class="edge"><title>cairo&#45;&gt;gtk+</title>
<path fill="none" stroke="black" d="M369.951,-143.842C369.27,-124.218 365.27,-92.2025 347.752,-72 323.67,-44.2268 282.902,-30.8084 253.23,-24.4555"/>
<polygon fill="black" stroke="black" points="253.731,-20.987 243.243,-22.4912 252.38,-27.8554 253.731,-20.987"/>
</g>
<!-- libpng -->
<g id="node12" class="node"><title>libpng</title>
<ellipse fill="none" stroke="black" cx="281.752" cy="-234" rx="33.2209" ry="18"/>
<text text-anchor="middle" x="281.752" y="-230.3" font-family="Times New Roman,serif" font-size="14.00">libpng</text>
</g>
<!-- libpng&#45;&gt;cairo -->
<g id="edge14" class="edge"><title>libpng&#45;&gt;cairo</title>
<path fill="none" stroke="black" d="M299.986,-218.496C312.948,-208.185 330.516,-194.211 344.779,-182.865"/>
<polygon fill="black" stroke="black" points="347.089,-185.5 352.736,-176.536 342.731,-180.022 347.089,-185.5"/>
</g>
<!-- pixman -->
<g id="node13" class="node"><title>pixman</title>
<ellipse fill="none" stroke="black" cx="369.752" cy="-234" rx="37.0701" ry="18"/>
<text text-anchor="middle" x="369.752" y="-230.3" font-family="Times New Roman,serif" font-size="14.00">pixman</text>
</g>
<!-- pixman&#45;&gt;cairo -->
<g id="edge15" class="edge"><title>pixman&#45;&gt;cairo</title>
<path fill="none" stroke="black" d="M369.752,-215.697C369.752,-207.983 369.752,-198.712 369.752,-190.112"/>
<polygon fill="black" stroke="black" points="373.252,-190.104 369.752,-180.104 366.252,-190.104 373.252,-190.104"/>
</g>
<!-- pango&#45;&gt;gtk+ -->
<g id="edge25" class="edge"><title>pango&#45;&gt;gtk+</title>
<path fill="none" stroke="black" d="M287.742,-74.8345C274.494,-64.4151 256.322,-50.1226 241.681,-38.6066"/>
<polygon fill="black" stroke="black" points="243.556,-35.6284 233.532,-32.1973 239.228,-41.1305 243.556,-35.6284"/>
</g>
</g>
</svg>
