<?xml version="1.0" encoding="UTF-8" standalone="no"?>
<!DOCTYPE svg PUBLIC "-//W3C//DTD SVG 1.1//EN"
 "http://www.w3.org/Graphics/SVG/1.1/DTD/svg11.dtd">
<!-- Generated by graphviz version 2.30.1 (20130214.1330)
 -->
<!-- Title: dot+ dependency graph Pages: 1 -->
<svg width="422pt" height="260pt"
 viewBox="0.00 0.00 422.34 260.00" xmlns="http://www.w3.org/2000/svg" xmlns:xlink="http://www.w3.org/1999/xlink">
<g id="graph0" class="graph" transform="scale(1 1) rotate(0) translate(4 256)">
<title>dot+ dependency graph</title>
<polygon fill="white" stroke="white" points="-4,5 -4,-256 419.341,-256 419.341,5 -4,5"/>
<!-- cdt -->
<g id="node1" class="node"><title>cdt</title>
<ellipse fill="none" stroke="black" cx="184.341" cy="-234" rx="27" ry="18"/>
<text text-anchor="middle" x="184.341" y="-230.3" font-family="Times New Roman,serif" font-size="14.00">cdt</text>
</g>
<!-- cgraph -->
<g id="node2" class="node"><title>cgraph</title>
<ellipse fill="none" stroke="black" cx="379.341" cy="-162" rx="35.6194" ry="18"/>
<text text-anchor="middle" x="379.341" y="-158.3" font-family="Times New Roman,serif" font-size="14.00">cgraph</text>
</g>
<!-- cdt&#45;&gt;cgraph -->
<g id="edge1" class="edge"><title>cdt&#45;&gt;cgraph</title>
<path fill="none" stroke="black" d="M207.781,-224.893C237.348,-214.627 289.723,-196.308 334.341,-180 336.9,-179.065 339.538,-178.092 342.193,-177.106"/>
<polygon fill="black" stroke="black" points="343.63,-180.305 351.77,-173.523 341.178,-173.748 343.63,-180.305"/>
</g>
<!-- gvc -->
<g id="node3" class="node"><title>gvc</title>
<ellipse fill="none" stroke="black" cx="222.341" cy="-90" rx="27" ry="18"/>
<text text-anchor="middle" x="222.341" y="-86.3" font-family="Times New Roman,serif" font-size="14.00">gvc</text>
</g>
<!-- cdt&#45;&gt;gvc -->
<g id="edge3" class="edge"><title>cdt&#45;&gt;gvc</title>
<path fill="none" stroke="black" d="M157.587,-229.946C98.6152,-222.155 -34.0728,-198.2 8.3412,-144 29.9472,-116.39 130.216,-101.155 185.502,-94.7226"/>
<polygon fill="black" stroke="black" points="186.051,-98.183 195.598,-93.5876 185.269,-91.2268 186.051,-98.183"/>
</g>
<!-- cgraph&#45;&gt;gvc -->
<g id="edge2" class="edge"><title>cgraph&#45;&gt;gvc</title>
<path fill="none" stroke="black" d="M353.416,-149.441C326.029,-137.23 282.841,-117.974 253.591,-104.933"/>
<polygon fill="black" stroke="black" points="254.807,-101.643 244.249,-100.768 251.957,-108.037 254.807,-101.643"/>
</g>
<!-- dot -->
<g id="node8" class="node"><title>dot</title>
<ellipse fill="none" stroke="black" cx="275.341" cy="-18" rx="27" ry="18"/>
<text text-anchor="middle" x="275.341" y="-14.3" font-family="Times New Roman,serif" font-size="14.00">dot</text>
</g>
<!-- cgraph&#45;&gt;dot -->
<g id="edge8" class="edge"><title>cgraph&#45;&gt;dot</title>
<path fill="none" stroke="black" d="M367.613,-144.987C349.416,-120.14 314.263,-72.1434 292.99,-43.0973"/>
<polygon fill="black" stroke="black" points="295.6,-40.7376 286.868,-34.738 289.953,-44.8737 295.6,-40.7376"/>
</g>
<!-- gvc&#45;&gt;dot -->
<g id="edge9" class="edge"><title>gvc&#45;&gt;dot</title>
<path fill="none" stroke="black" d="M234.104,-73.4647C240.965,-64.4021 249.76,-52.7865 257.464,-42.6119"/>
<polygon fill="black" stroke="black" points="260.366,-44.5772 263.612,-34.4918 254.785,-40.3517 260.366,-44.5772"/>
</g>
<!-- pathplan -->
<g id="node4" class="node"><title>pathplan</title>
<ellipse fill="none" stroke="black" cx="59.3412" cy="-162" rx="41.394" ry="18"/>
<text text-anchor="middle" x="59.3412" y="-158.3" font-family="Times New Roman,serif" font-size="14.00">pathplan</text>
</g>
<!-- pathplan&#45;&gt;gvc -->
<g id="edge4" class="edge"><title>pathplan&#45;&gt;gvc</title>
<path fill="none" stroke="black" d="M87.7336,-148.807C116.498,-136.454 160.893,-117.389 190.753,-104.565"/>
<polygon fill="black" stroke="black" points="192.471,-107.637 200.279,-100.475 189.709,-101.205 192.471,-107.637"/>
</g>
<!-- ltdl -->
<g id="node5" class="node"><title>ltdl</title>
<ellipse fill="none" stroke="black" cx="146.341" cy="-162" rx="27" ry="18"/>
<text text-anchor="middle" x="146.341" y="-158.3" font-family="Times New Roman,serif" font-size="14.00">ltdl</text>
</g>
<!-- ltdl&#45;&gt;gvc -->
<g id="edge5" class="edge"><title>ltdl&#45;&gt;gvc</title>
<path fill="none" stroke="black" d="M161.721,-146.834C172.537,-136.872 187.198,-123.369 199.392,-112.137"/>
<polygon fill="black" stroke="black" points="202,-114.494 206.984,-105.144 197.258,-109.345 202,-114.494"/>
</g>
<!-- expat -->
<g id="node6" class="node"><title>expat</title>
<ellipse fill="none" stroke="black" cx="222.341" cy="-162" rx="30.3206" ry="18"/>
<text text-anchor="middle" x="222.341" y="-158.3" font-family="Times New Roman,serif" font-size="14.00">expat</text>
</g>
<!-- expat&#45;&gt;gvc -->
<g id="edge6" class="edge"><title>expat&#45;&gt;gvc</title>
<path fill="none" stroke="black" d="M222.341,-143.697C222.341,-135.983 222.341,-126.712 222.341,-118.112"/>
<polygon fill="black" stroke="black" points="225.841,-118.104 222.341,-108.104 218.841,-118.104 225.841,-118.104"/>
</g>
<!-- zlib -->
<g id="node7" class="node"><title>zlib</title>
<ellipse fill="none" stroke="black" cx="298.341" cy="-162" rx="27" ry="18"/>
<text text-anchor="middle" x="298.341" y="-158.3" font-family="Times New Roman,serif" font-size="14.00">zlib</text>
</g>
<!-- zlib&#45;&gt;gvc -->
<g id="edge7" class="edge"><title>zlib&#45;&gt;gvc</title>
<path fill="none" stroke="black" d="M282.961,-146.834C272.145,-136.872 257.484,-123.369 245.29,-112.137"/>
<polygon fill="black" stroke="black" points="247.425,-109.345 237.698,-105.144 242.682,-114.494 247.425,-109.345"/>
</g>
</g>
</svg>
