<?xml version="1.0" encoding="UTF-8" standalone="no"?>
<!DOCTYPE svg PUBLIC "-//W3C//DTD SVG 1.1//EN"
 "http://www.w3.org/Graphics/SVG/1.1/DTD/svg11.dtd">
<!-- Generated by graphviz version 2.29.20110630.0445 (20110630.0445)
 -->
<!-- Title: atk dependency graph Pages: 1 -->
<svg width="222pt" height="260pt"
 viewBox="0.00 0.00 222.00 260.00" xmlns="http://www.w3.org/2000/svg" xmlns:xlink="http://www.w3.org/1999/xlink">
<g id="graph1" class="graph" transform="scale(1 1) rotate(0) translate(4 256)">
<title>atk dependency graph</title>
<polygon fill="white" stroke="white" points="-4,5 -4,-256 219,-256 219,5 -4,5"/>
<!-- libiconv -->
<g id="node1" class="node"><title>libiconv</title>
<ellipse fill="none" stroke="black" cx="39" cy="-234" rx="39.4691" ry="18"/>
<text text-anchor="middle" x="39" y="-230.3" font-family="Times New Roman,serif" font-size="14.00">libiconv</text>
</g>
<!-- libintl -->
<g id="node3" class="node"><title>libintl</title>
<ellipse fill="none" stroke="black" cx="39" cy="-162" rx="30.3206" ry="18"/>
<text text-anchor="middle" x="39" y="-158.3" font-family="Times New Roman,serif" font-size="14.00">libintl</text>
</g>
<!-- libiconv&#45;&gt;libintl -->
<g id="edge2" class="edge"><title>libiconv&#45;&gt;libintl</title>
<path fill="none" stroke="red" d="M33.1218,-216.055C32.2915,-208.231 32.0543,-198.748 32.4102,-189.977"/>
<polygon fill="red" stroke="red" points="35.9164,-190.013 33.1384,-179.789 28.9342,-189.514 35.9164,-190.013"/>
</g>
<!-- libintl&#45;&gt;libiconv -->
<g id="edge4" class="edge"><title>libintl&#45;&gt;libiconv</title>
<path fill="none" stroke="blue" stroke-dasharray="1,5" d="M44.8616,-179.789C45.6998,-187.591 45.9449,-197.067 45.5969,-205.848"/>
<polygon fill="blue" stroke="blue" points="42.0893,-205.834 44.8782,-216.055 49.072,-206.325 42.0893,-205.834"/>
</g>
<!-- glib -->
<g id="node7" class="node"><title>glib</title>
<ellipse fill="none" stroke="black" cx="123" cy="-90" rx="27" ry="18"/>
<text text-anchor="middle" x="123" y="-86.3" font-family="Times New Roman,serif" font-size="14.00">glib</text>
</g>
<!-- libintl&#45;&gt;glib -->
<g id="edge10" class="edge"><title>libintl&#45;&gt;glib</title>
<path fill="none" stroke="black" d="M55.9987,-146.834C68.2262,-136.645 84.8989,-122.751 98.5533,-111.372"/>
<polygon fill="black" stroke="black" points="101.157,-113.759 106.598,-104.668 96.6754,-108.381 101.157,-113.759"/>
</g>
<!-- zlib -->
<g id="node5" class="node"><title>zlib</title>
<ellipse fill="none" stroke="black" cx="115" cy="-162" rx="27" ry="18"/>
<text text-anchor="middle" x="115" y="-158.3" font-family="Times New Roman,serif" font-size="14.00">zlib</text>
</g>
<!-- zlib&#45;&gt;glib -->
<g id="edge6" class="edge"><title>zlib&#45;&gt;glib</title>
<path fill="none" stroke="black" d="M116.978,-143.697C117.859,-135.983 118.919,-126.712 119.901,-118.112"/>
<polygon fill="black" stroke="black" points="123.387,-118.437 121.045,-108.104 116.432,-117.642 123.387,-118.437"/>
</g>
<!-- atk -->
<g id="node12" class="node"><title>atk</title>
<ellipse fill="none" stroke="black" cx="152" cy="-18" rx="27" ry="18"/>
<text text-anchor="middle" x="152" y="-14.3" font-family="Times New Roman,serif" font-size="14.00">atk</text>
</g>
<!-- glib&#45;&gt;atk -->
<g id="edge14" class="edge"><title>glib&#45;&gt;atk</title>
<path fill="none" stroke="black" d="M129.873,-72.411C133.267,-64.2164 137.442,-54.1395 141.247,-44.9548"/>
<polygon fill="black" stroke="black" points="144.583,-46.0481 145.177,-35.4699 138.116,-43.3689 144.583,-46.0481"/>
</g>
<!-- libffi -->
<g id="node8" class="node"><title>libffi</title>
<ellipse fill="none" stroke="black" cx="187" cy="-162" rx="26.949" ry="18"/>
<text text-anchor="middle" x="187" y="-158.3" font-family="Times New Roman,serif" font-size="14.00">libffi</text>
</g>
<!-- libffi&#45;&gt;glib -->
<g id="edge8" class="edge"><title>libffi&#45;&gt;glib</title>
<path fill="none" stroke="black" d="M173.427,-146.155C164.688,-136.596 153.166,-123.994 143.342,-113.249"/>
<polygon fill="black" stroke="black" points="145.884,-110.842 136.553,-105.824 140.718,-115.566 145.884,-110.842"/>
</g>
<!-- libffi&#45;&gt;atk -->
<g id="edge12" class="edge"><title>libffi&#45;&gt;atk</title>
<path fill="none" stroke="black" d="M182.848,-144.153C176.848,-119.813 165.696,-74.5681 158.572,-45.6651"/>
<polygon fill="black" stroke="black" points="161.939,-44.6967 156.147,-35.825 155.142,-46.372 161.939,-44.6967"/>
</g>
</g>
</svg>
