<?xml version="1.0" encoding="UTF-8" standalone="no"?>
<!DOCTYPE svg PUBLIC "-//W3C//DTD SVG 1.1//EN"
 "http://www.w3.org/Graphics/SVG/1.1/DTD/svg11.dtd">
<!-- Generated by graphviz version 2.29.20110630.0445 (20110630.0445)
 -->
<!-- Title: Dependency Graph Pages: 1 -->
<svg width="774pt" height="260pt"
 viewBox="0.00 0.00 774.00 260.00" xmlns="http://www.w3.org/2000/svg" xmlns:xlink="http://www.w3.org/1999/xlink">
<g id="graph1" class="graph" transform="scale(1 1) rotate(0) translate(4 256)">
<title>Dependency Graph</title>
<polygon fill="white" stroke="white" points="-4,5 -4,-256 771,-256 771,5 -4,5"/>
<!-- zlib -->
<g id="node1" class="node"><title>zlib</title>
<ellipse fill="none" stroke="black" cx="27" cy="-162" rx="27" ry="18"/>
<text text-anchor="middle" x="27" y="-158.3" font-family="Times New Roman,serif" font-size="14.00">zlib</text>
</g>
<!-- rrdtool -->
<g id="node3" class="node"><title>rrdtool</title>
<ellipse fill="none" stroke="black" cx="363" cy="-18" rx="35.6194" ry="18"/>
<text text-anchor="middle" x="363" y="-14.3" font-family="Times New Roman,serif" font-size="14.00">rrdtool</text>
</g>
<!-- zlib&#45;&gt;rrdtool -->
<g id="edge2" class="edge"><title>zlib&#45;&gt;rrdtool</title>
<path fill="none" stroke="black" d="M28.945,-144.012C32.2281,-123.621 40.8495,-89.9358 63,-72 101.394,-40.9114 243.508,-26.9725 317.519,-21.7089"/>
<polygon fill="black" stroke="black" points="318.188,-25.1713 327.925,-20.9942 317.708,-18.1877 318.188,-25.1713"/>
</g>
<!-- glib -->
<g id="node16" class="node"><title>glib</title>
<ellipse fill="none" stroke="black" cx="99" cy="-90" rx="27" ry="18"/>
<text text-anchor="middle" x="99" y="-86.3" font-family="Times New Roman,serif" font-size="14.00">glib</text>
</g>
<!-- zlib&#45;&gt;glib -->
<g id="edge20" class="edge"><title>zlib&#45;&gt;glib</title>
<path fill="none" stroke="black" d="M41.5703,-146.834C51.7499,-136.938 65.5239,-123.546 77.0306,-112.359"/>
<polygon fill="black" stroke="black" points="79.4741,-114.865 84.2043,-105.385 74.5945,-109.846 79.4741,-114.865"/>
</g>
<!-- libpng -->
<g id="node4" class="node"><title>libpng</title>
<ellipse fill="none" stroke="black" cx="177" cy="-90" rx="33.2209" ry="18"/>
<text text-anchor="middle" x="177" y="-86.3" font-family="Times New Roman,serif" font-size="14.00">libpng</text>
</g>
<!-- libpng&#45;&gt;rrdtool -->
<g id="edge4" class="edge"><title>libpng&#45;&gt;rrdtool</title>
<path fill="none" stroke="black" d="M202.714,-78.4408C208.083,-76.2785 213.717,-74.0409 219,-72 254.789,-58.175 295.885,-43.1311 324.989,-32.6153"/>
<polygon fill="black" stroke="black" points="326.536,-35.7785 334.756,-29.094 324.161,-29.1934 326.536,-35.7785"/>
</g>
<!-- freetype -->
<g id="node6" class="node"><title>freetype</title>
<ellipse fill="none" stroke="black" cx="268" cy="-90" rx="39.9464" ry="18"/>
<text text-anchor="middle" x="268" y="-86.3" font-family="Times New Roman,serif" font-size="14.00">freetype</text>
</g>
<!-- freetype&#45;&gt;rrdtool -->
<g id="edge6" class="edge"><title>freetype&#45;&gt;rrdtool</title>
<path fill="none" stroke="black" d="M288.147,-74.1548C301.806,-64.0903 320.043,-50.6529 335.095,-39.5613"/>
<polygon fill="black" stroke="black" points="337.557,-42.0948 343.532,-33.345 333.405,-36.4594 337.557,-42.0948"/>
</g>
<!-- libxml2 -->
<g id="node8" class="node"><title>libxml2</title>
<ellipse fill="none" stroke="black" cx="363" cy="-90" rx="37.0701" ry="18"/>
<text text-anchor="middle" x="363" y="-86.3" font-family="Times New Roman,serif" font-size="14.00">libxml2</text>
</g>
<!-- libxml2&#45;&gt;rrdtool -->
<g id="edge8" class="edge"><title>libxml2&#45;&gt;rrdtool</title>
<path fill="none" stroke="black" d="M363,-71.6966C363,-63.9827 363,-54.7125 363,-46.1124"/>
<polygon fill="black" stroke="black" points="366.5,-46.1043 363,-36.1043 359.5,-46.1044 366.5,-46.1043"/>
</g>
<!-- fontconfig -->
<g id="node10" class="node"><title>fontconfig</title>
<ellipse fill="none" stroke="black" cx="466" cy="-90" rx="48.1437" ry="18"/>
<text text-anchor="middle" x="466" y="-86.3" font-family="Times New Roman,serif" font-size="14.00">fontconfig</text>
</g>
<!-- fontconfig&#45;&gt;rrdtool -->
<g id="edge10" class="edge"><title>fontconfig&#45;&gt;rrdtool</title>
<path fill="none" stroke="black" d="M443.904,-73.9832C428.742,-63.679 408.467,-49.8996 392.006,-38.7131"/>
<polygon fill="black" stroke="black" points="393.549,-35.5298 383.311,-32.8036 389.614,-41.3193 393.549,-35.5298"/>
</g>
<!-- pixman -->
<g id="node12" class="node"><title>pixman</title>
<ellipse fill="none" stroke="black" cx="569" cy="-90" rx="37.0701" ry="18"/>
<text text-anchor="middle" x="569" y="-86.3" font-family="Times New Roman,serif" font-size="14.00">pixman</text>
</g>
<!-- pixman&#45;&gt;rrdtool -->
<g id="edge12" class="edge"><title>pixman&#45;&gt;rrdtool</title>
<path fill="none" stroke="black" d="M540.345,-78.2384C534.613,-76.1341 528.625,-73.9703 523,-72 481.829,-57.5782 434.351,-41.98 401.872,-31.4661"/>
<polygon fill="black" stroke="black" points="402.89,-28.1167 392.298,-28.3733 400.738,-34.7778 402.89,-28.1167"/>
</g>
<!-- cairo -->
<g id="node14" class="node"><title>cairo</title>
<ellipse fill="none" stroke="black" cx="653" cy="-90" rx="28.3955" ry="18"/>
<text text-anchor="middle" x="653" y="-86.3" font-family="Times New Roman,serif" font-size="14.00">cairo</text>
</g>
<!-- cairo&#45;&gt;rrdtool -->
<g id="edge14" class="edge"><title>cairo&#45;&gt;rrdtool</title>
<path fill="none" stroke="black" d="M631.21,-78.298C625.984,-75.9993 620.362,-73.7411 615,-72 543.593,-48.8127 457.431,-33.2398 406.6,-25.2693"/>
<polygon fill="black" stroke="black" points="407.029,-21.7943 396.613,-23.7301 405.963,-28.7126 407.029,-21.7943"/>
</g>
<!-- glib&#45;&gt;rrdtool -->
<g id="edge16" class="edge"><title>glib&#45;&gt;rrdtool</title>
<path fill="none" stroke="black" d="M119.625,-78.342C124.577,-76.0415 129.908,-73.7714 135,-72 197.803,-50.1517 273.468,-34.5806 319.896,-26.1881"/>
<polygon fill="black" stroke="black" points="320.677,-29.6042 329.91,-24.4075 319.452,-22.7123 320.677,-29.6042"/>
</g>
<!-- pango -->
<g id="node18" class="node"><title>pango</title>
<ellipse fill="none" stroke="black" cx="733" cy="-90" rx="33.2209" ry="18"/>
<text text-anchor="middle" x="733" y="-86.3" font-family="Times New Roman,serif" font-size="14.00">pango</text>
</g>
<!-- pango&#45;&gt;rrdtool -->
<g id="edge18" class="edge"><title>pango&#45;&gt;rrdtool</title>
<path fill="none" stroke="black" d="M707.843,-78.0065C702.062,-75.775 695.882,-73.619 690,-72 591.252,-44.8209 471.648,-29.8079 407.991,-23.187"/>
<polygon fill="black" stroke="black" points="408.197,-19.6899 397.893,-22.1586 407.487,-26.6539 408.197,-19.6899"/>
</g>
<!-- libffi -->
<g id="node21" class="node"><title>libffi</title>
<ellipse fill="none" stroke="black" cx="99" cy="-162" rx="26.949" ry="18"/>
<text text-anchor="middle" x="99" y="-158.3" font-family="Times New Roman,serif" font-size="14.00">libffi</text>
</g>
<!-- libffi&#45;&gt;glib -->
<g id="edge22" class="edge"><title>libffi&#45;&gt;glib</title>
<path fill="none" stroke="black" d="M99,-143.697C99,-135.983 99,-126.712 99,-118.112"/>
<polygon fill="black" stroke="black" points="102.5,-118.104 99,-108.104 95.5001,-118.104 102.5,-118.104"/>
</g>
<!-- libiconv -->
<g id="node23" class="node"><title>libiconv</title>
<ellipse fill="none" stroke="black" cx="213" cy="-234" rx="39.4691" ry="18"/>
<text text-anchor="middle" x="213" y="-230.3" font-family="Times New Roman,serif" font-size="14.00">libiconv</text>
</g>
<!-- libiconv&#45;&gt;glib -->
<g id="edge24" class="edge"><title>libiconv&#45;&gt;glib</title>
<path fill="none" stroke="black" d="M200.144,-216.987C180.005,-191.901 140.921,-143.217 117.677,-114.264"/>
<polygon fill="black" stroke="black" points="120.279,-111.915 111.29,-106.308 114.821,-116.297 120.279,-111.915"/>
</g>
<!-- libintl -->
<g id="node26" class="node"><title>libintl</title>
<ellipse fill="none" stroke="black" cx="213" cy="-162" rx="30.3206" ry="18"/>
<text text-anchor="middle" x="213" y="-158.3" font-family="Times New Roman,serif" font-size="14.00">libintl</text>
</g>
<!-- libiconv&#45;&gt;libintl -->
<g id="edge26" class="edge"><title>libiconv&#45;&gt;libintl</title>
<path fill="none" stroke="black" d="M207.122,-216.055C206.291,-208.231 206.054,-198.748 206.41,-189.977"/>
<polygon fill="black" stroke="black" points="209.916,-190.013 207.138,-179.789 202.934,-189.514 209.916,-190.013"/>
</g>
<!-- libintl&#45;&gt;glib -->
<g id="edge27" class="edge"><title>libintl&#45;&gt;glib</title>
<path fill="none" stroke="black" d="M192.619,-148.485C174.321,-137.249 147.291,-120.652 126.973,-108.176"/>
<polygon fill="black" stroke="black" points="128.797,-105.189 118.444,-102.939 125.134,-111.154 128.797,-105.189"/>
</g>
<!-- libintl&#45;&gt;libiconv -->
<g id="edge29" class="edge"><title>libintl&#45;&gt;libiconv</title>
<path fill="none" stroke="red" stroke-dasharray="1,5" d="M218.862,-179.789C219.7,-187.591 219.945,-197.067 219.597,-205.848"/>
<polygon fill="red" stroke="red" points="216.089,-205.834 218.878,-216.055 223.072,-206.325 216.089,-205.834"/>
</g>
</g>
</svg>
