<?xml version="1.0" encoding="UTF-8" standalone="no"?>
<!DOCTYPE svg PUBLIC "-//W3C//DTD SVG 1.1//EN"
 "http://www.w3.org/Graphics/SVG/1.1/DTD/svg11.dtd">
<!-- Generated by graphviz version 2.30.1 (20130214.1330)
 -->
<!-- Title: Dependency Graph Pages: 1 -->
<svg width="629pt" height="260pt"
 viewBox="0.00 0.00 628.84 260.00" xmlns="http://www.w3.org/2000/svg" xmlns:xlink="http://www.w3.org/1999/xlink">
<g id="graph0" class="graph" transform="scale(1 1) rotate(0) translate(4 256)">
<title>Dependency Graph</title>
<polygon fill="white" stroke="white" points="-4,5 -4,-256 625.837,-256 625.837,5 -4,5"/>
<!-- zlib -->
<g id="node1" class="node"><title>zlib</title>
<ellipse fill="none" stroke="black" cx="86.8366" cy="-234" rx="27" ry="18"/>
<text text-anchor="middle" x="86.8366" y="-230.3" font-family="Times New Roman,serif" font-size="14.00">zlib</text>
</g>
<!-- rrdtool -->
<g id="node2" class="node"><title>rrdtool</title>
<ellipse fill="none" stroke="black" cx="259.837" cy="-18" rx="35.6194" ry="18"/>
<text text-anchor="middle" x="259.837" y="-14.3" font-family="Times New Roman,serif" font-size="14.00">rrdtool</text>
</g>
<!-- zlib&#45;&gt;rrdtool -->
<g id="edge1" class="edge"><title>zlib&#45;&gt;rrdtool</title>
<path fill="none" stroke="black" d="M66.641,-221.941C52.0428,-212.766 33.2911,-198.282 23.8366,-180 1.75363,-137.298 -12.3021,-109.454 17.8366,-72 42.1013,-41.846 151.863,-27.8948 214.91,-22.2681"/>
<polygon fill="black" stroke="black" points="215.319,-25.746 224.983,-21.4044 214.721,-18.7716 215.319,-25.746"/>
</g>
<!-- fontconfig -->
<g id="node6" class="node"><title>fontconfig</title>
<ellipse fill="none" stroke="black" cx="74.8366" cy="-90" rx="48.1437" ry="18"/>
<text text-anchor="middle" x="74.8366" y="-86.3" font-family="Times New Roman,serif" font-size="14.00">fontconfig</text>
</g>
<!-- zlib&#45;&gt;fontconfig -->
<g id="edge11" class="edge"><title>zlib&#45;&gt;fontconfig</title>
<path fill="none" stroke="black" d="M67.9399,-220.94C55.0933,-211.538 39.1514,-197.207 31.8366,-180 25.5771,-165.275 26.4887,-159.08 31.8366,-144 35.7178,-133.056 42.9289,-122.724 50.3517,-114.139"/>
<polygon fill="black" stroke="black" points="52.9326,-116.504 57.1386,-106.779 47.7865,-111.758 52.9326,-116.504"/>
</g>
<!-- freetype -->
<g id="node4" class="node"><title>freetype</title>
<ellipse fill="none" stroke="black" cx="160.837" cy="-162" rx="39.9464" ry="18"/>
<text text-anchor="middle" x="160.837" y="-158.3" font-family="Times New Roman,serif" font-size="14.00">freetype</text>
</g>
<!-- zlib&#45;&gt;freetype -->
<g id="edge13" class="edge"><title>zlib&#45;&gt;freetype</title>
<path fill="none" stroke="black" d="M101.812,-218.834C111.831,-209.356 125.239,-196.673 136.743,-185.791"/>
<polygon fill="black" stroke="black" points="139.479,-188.021 144.339,-178.606 134.669,-182.935 139.479,-188.021"/>
</g>
<!-- libpng -->
<g id="node3" class="node"><title>libpng</title>
<ellipse fill="none" stroke="black" cx="251.837" cy="-162" rx="33.2209" ry="18"/>
<text text-anchor="middle" x="251.837" y="-158.3" font-family="Times New Roman,serif" font-size="14.00">libpng</text>
</g>
<!-- zlib&#45;&gt;libpng -->
<g id="edge14" class="edge"><title>zlib&#45;&gt;libpng</title>
<path fill="none" stroke="black" d="M109.089,-223.559C136.751,-211.824 184.283,-191.659 216.842,-177.846"/>
<polygon fill="black" stroke="black" points="218.588,-180.908 226.427,-173.78 215.854,-174.463 218.588,-180.908"/>
</g>
<!-- libpng&#45;&gt;rrdtool -->
<g id="edge2" class="edge"><title>libpng&#45;&gt;rrdtool</title>
<path fill="none" stroke="black" d="M236.946,-145.756C228.37,-135.875 218.41,-122.228 213.837,-108 208.94,-92.7676 208.239,-86.9889 213.837,-72 218.188,-60.3472 226.385,-49.5594 234.668,-40.8"/>
<polygon fill="black" stroke="black" points="237.238,-43.1803 241.875,-33.6537 232.309,-38.2098 237.238,-43.1803"/>
</g>
<!-- freetype&#45;&gt;rrdtool -->
<g id="edge3" class="edge"><title>freetype&#45;&gt;rrdtool</title>
<path fill="none" stroke="black" d="M167.722,-144.04C175.687,-125.444 189.901,-95.1688 206.837,-72 214.956,-60.8923 225.41,-49.9189 234.884,-40.8636"/>
<polygon fill="black" stroke="black" points="237.273,-43.4216 242.21,-34.0469 232.505,-38.2971 237.273,-43.4216"/>
</g>
<!-- freetype&#45;&gt;fontconfig -->
<g id="edge10" class="edge"><title>freetype&#45;&gt;fontconfig</title>
<path fill="none" stroke="black" d="M142.176,-145.811C130.394,-136.221 114.976,-123.672 101.867,-113.002"/>
<polygon fill="black" stroke="black" points="104.021,-110.242 94.0564,-106.644 99.6025,-115.671 104.021,-110.242"/>
</g>
<!-- libxml2 -->
<g id="node5" class="node"><title>libxml2</title>
<ellipse fill="none" stroke="black" cx="259.837" cy="-90" rx="37.0701" ry="18"/>
<text text-anchor="middle" x="259.837" y="-86.3" font-family="Times New Roman,serif" font-size="14.00">libxml2</text>
</g>
<!-- libxml2&#45;&gt;rrdtool -->
<g id="edge4" class="edge"><title>libxml2&#45;&gt;rrdtool</title>
<path fill="none" stroke="black" d="M259.837,-71.6966C259.837,-63.9827 259.837,-54.7125 259.837,-46.1124"/>
<polygon fill="black" stroke="black" points="263.337,-46.1043 259.837,-36.1043 256.337,-46.1044 263.337,-46.1043"/>
</g>
<!-- fontconfig&#45;&gt;rrdtool -->
<g id="edge5" class="edge"><title>fontconfig&#45;&gt;rrdtool</title>
<path fill="none" stroke="black" d="M107.485,-76.6465C139.773,-64.4293 189.113,-45.7604 222.836,-33.0001"/>
<polygon fill="black" stroke="black" points="224.221,-36.2184 232.335,-29.4059 221.744,-29.6714 224.221,-36.2184"/>
</g>
<!-- pixman -->
<g id="node7" class="node"><title>pixman</title>
<ellipse fill="none" stroke="black" cx="351.837" cy="-90" rx="37.0701" ry="18"/>
<text text-anchor="middle" x="351.837" y="-86.3" font-family="Times New Roman,serif" font-size="14.00">pixman</text>
</g>
<!-- pixman&#45;&gt;rrdtool -->
<g id="edge6" class="edge"><title>pixman&#45;&gt;rrdtool</title>
<path fill="none" stroke="black" d="M332.774,-74.496C319.575,-64.4532 301.808,-50.9344 287.113,-39.7541"/>
<polygon fill="black" stroke="black" points="288.952,-36.7553 278.875,-33.4855 284.714,-42.3261 288.952,-36.7553"/>
</g>
<!-- cairo -->
<g id="node8" class="node"><title>cairo</title>
<ellipse fill="none" stroke="black" cx="435.837" cy="-90" rx="28.3955" ry="18"/>
<text text-anchor="middle" x="435.837" y="-86.3" font-family="Times New Roman,serif" font-size="14.00">cairo</text>
</g>
<!-- cairo&#45;&gt;rrdtool -->
<g id="edge7" class="edge"><title>cairo&#45;&gt;rrdtool</title>
<path fill="none" stroke="black" d="M413.419,-78.7302C408.319,-76.4612 402.909,-74.1069 397.837,-72 364.02,-57.954 325.032,-43.1017 297.141,-32.7048"/>
<polygon fill="black" stroke="black" points="298.358,-29.4233 287.765,-29.2218 295.92,-35.9851 298.358,-29.4233"/>
</g>
<!-- glib -->
<g id="node9" class="node"><title>glib</title>
<ellipse fill="none" stroke="black" cx="509.837" cy="-90" rx="27" ry="18"/>
<text text-anchor="middle" x="509.837" y="-86.3" font-family="Times New Roman,serif" font-size="14.00">glib</text>
</g>
<!-- glib&#45;&gt;rrdtool -->
<g id="edge8" class="edge"><title>glib&#45;&gt;rrdtool</title>
<path fill="none" stroke="black" d="M488.595,-78.4194C483.507,-76.1157 478.04,-73.8247 472.837,-72 415.077,-51.7447 345.946,-36.0424 302.451,-27.1537"/>
<polygon fill="black" stroke="black" points="302.998,-23.6937 292.504,-25.1485 301.615,-30.5556 302.998,-23.6937"/>
</g>
<!-- pango -->
<g id="node10" class="node"><title>pango</title>
<ellipse fill="none" stroke="black" cx="587.837" cy="-90" rx="33.2209" ry="18"/>
<text text-anchor="middle" x="587.837" y="-86.3" font-family="Times New Roman,serif" font-size="14.00">pango</text>
</g>
<!-- pango&#45;&gt;rrdtool -->
<g id="edge9" class="edge"><title>pango&#45;&gt;rrdtool</title>
<path fill="none" stroke="black" d="M562.809,-77.9127C557.291,-75.739 551.425,-73.6306 545.837,-72 461.866,-47.4972 360.59,-31.888 303.871,-24.3553"/>
<polygon fill="black" stroke="black" points="304.182,-20.8663 293.813,-23.0424 303.276,-27.8074 304.182,-20.8663"/>
</g>
<!-- expat -->
<g id="node11" class="node"><title>expat</title>
<ellipse fill="none" stroke="black" cx="71.8366" cy="-162" rx="30.3206" ry="18"/>
<text text-anchor="middle" x="71.8366" y="-158.3" font-family="Times New Roman,serif" font-size="14.00">expat</text>
</g>
<!-- expat&#45;&gt;fontconfig -->
<g id="edge12" class="edge"><title>expat&#45;&gt;fontconfig</title>
<path fill="none" stroke="black" d="M72.5782,-143.697C72.9088,-135.983 73.3061,-126.712 73.6746,-118.112"/>
<polygon fill="black" stroke="black" points="77.1721,-118.245 74.1035,-108.104 70.1785,-117.945 77.1721,-118.245"/>
</g>
</g>
</svg>
