<?xml version="1.0" encoding="UTF-8" standalone="no"?>
<!DOCTYPE svg PUBLIC "-//W3C//DTD SVG 1.1//EN"
 "http://www.w3.org/Graphics/SVG/1.1/DTD/svg11.dtd">
<!-- Generated by graphviz version 2.26.3 (20100126.1600)
 -->
<!-- Title: gnupg dependency graph Pages: 1 -->
<svg width="724pt" height="188pt"
 viewBox="0.00 0.00 724.00 188.00" xmlns="http://www.w3.org/2000/svg" xmlns:xlink="http://www.w3.org/1999/xlink">
<g id="graph1" class="graph" transform="scale(1 1) rotate(0) translate(4 184)">
<title>gnupg dependency graph</title>
<polygon fill="white" stroke="white" points="-4,5 -4,-184 721,-184 721,5 -4,5"/>
<!-- zlib -->
<g id="node1" class="node"><title>zlib</title>
<ellipse fill="none" stroke="black" cx="28" cy="-90" rx="27.9903" ry="18"/>
<text text-anchor="middle" x="28" y="-85.9" font-family="Times Roman,serif" font-size="14.00">zlib</text>
</g>
<!-- gnupg -->
<g id="node3" class="node"><title>gnupg</title>
<ellipse fill="none" stroke="black" cx="292" cy="-18" rx="40.9981" ry="18"/>
<text text-anchor="middle" x="292" y="-13.9" font-family="Times Roman,serif" font-size="14.00">gnupg</text>
</g>
<!-- zlib&#45;&gt;gnupg -->
<g id="edge2" class="edge"><title>zlib&#45;&gt;gnupg</title>
<path fill="none" stroke="black" d="M49.9645,-78.3395C54.8304,-76.033 60.0221,-73.7786 65,-72 124.936,-50.5848 196.808,-35.1158 243.387,-26.3608"/>
<polygon fill="black" stroke="black" points="244.309,-29.7498 253.506,-24.4899 243.036,-22.8665 244.309,-29.7498"/>
</g>
<!-- bzip2 -->
<g id="node4" class="node"><title>bzip2</title>
<ellipse fill="none" stroke="black" cx="111" cy="-90" rx="37.0233" ry="18"/>
<text text-anchor="middle" x="111" y="-85.9" font-family="Times Roman,serif" font-size="14.00">bzip2</text>
</g>
<!-- bzip2&#45;&gt;gnupg -->
<g id="edge4" class="edge"><title>bzip2&#45;&gt;gnupg</title>
<path fill="none" stroke="black" d="M139.68,-78.5914C169.892,-66.5734 217.71,-47.5517 251.704,-34.0293"/>
<polygon fill="black" stroke="black" points="253.338,-37.146 261.337,-30.1976 250.751,-30.6417 253.338,-37.146"/>
</g>
<!-- curl -->
<g id="node6" class="node"><title>curl</title>
<ellipse fill="none" stroke="black" cx="195" cy="-90" rx="29.1851" ry="18"/>
<text text-anchor="middle" x="195" y="-85.9" font-family="Times Roman,serif" font-size="14.00">curl</text>
</g>
<!-- curl&#45;&gt;gnupg -->
<g id="edge6" class="edge"><title>curl&#45;&gt;gnupg</title>
<path fill="none" stroke="black" d="M213.703,-76.1177C227.545,-65.8429 246.674,-51.6437 262.56,-39.8524"/>
<polygon fill="black" stroke="black" points="265.054,-42.3603 270.997,-33.5897 260.881,-36.7395 265.054,-42.3603"/>
</g>
<!-- libgcrypt -->
<g id="node8" class="node"><title>libgcrypt</title>
<ellipse fill="none" stroke="black" cx="333" cy="-90" rx="52.8111" ry="18"/>
<text text-anchor="middle" x="333" y="-85.9" font-family="Times Roman,serif" font-size="14.00">libgcrypt</text>
</g>
<!-- libgcrypt&#45;&gt;gnupg -->
<g id="edge8" class="edge"><title>libgcrypt&#45;&gt;gnupg</title>
<path fill="none" stroke="black" d="M322.865,-72.2022C318.099,-63.832 312.318,-53.6802 307.054,-44.4356"/>
<polygon fill="black" stroke="black" points="310.008,-42.5509 302.018,-35.593 303.925,-46.0148 310.008,-42.5509"/>
</g>
<!-- libassuan -->
<g id="node10" class="node"><title>libassuan</title>
<ellipse fill="none" stroke="black" cx="459" cy="-90" rx="55.0898" ry="18"/>
<text text-anchor="middle" x="459" y="-85.9" font-family="Times Roman,serif" font-size="14.00">libassuan</text>
</g>
<!-- libassuan&#45;&gt;gnupg -->
<g id="edge10" class="edge"><title>libassuan&#45;&gt;gnupg</title>
<path fill="none" stroke="black" d="M425.606,-75.6028C398.241,-63.8044 359.481,-47.0935 330.751,-34.7072"/>
<polygon fill="black" stroke="black" points="331.993,-31.4309 321.424,-30.6858 329.221,-37.8589 331.993,-31.4309"/>
</g>
<!-- libpth -->
<g id="node12" class="node"><title>libpth</title>
<ellipse fill="none" stroke="black" cx="677" cy="-90" rx="38.9134" ry="18"/>
<text text-anchor="middle" x="677" y="-85.9" font-family="Times Roman,serif" font-size="14.00">libpth</text>
</g>
<!-- libpth&#45;&gt;gnupg -->
<g id="edge12" class="edge"><title>libpth&#45;&gt;gnupg</title>
<path fill="none" stroke="black" d="M647.855,-78.0124C641.702,-75.7815 635.195,-73.6401 629,-72 529.094,-45.548 408.888,-30.0738 342.421,-22.8977"/>
<polygon fill="black" stroke="black" points="342.54,-19.3907 332.226,-21.8168 341.801,-26.3517 342.54,-19.3907"/>
</g>
<!-- libksba -->
<g id="node14" class="node"><title>libksba</title>
<ellipse fill="none" stroke="black" cx="576" cy="-90" rx="43.9728" ry="18"/>
<text text-anchor="middle" x="576" y="-85.9" font-family="Times Roman,serif" font-size="14.00">libksba</text>
</g>
<!-- libksba&#45;&gt;gnupg -->
<g id="edge14" class="edge"><title>libksba&#45;&gt;gnupg</title>
<path fill="none" stroke="black" d="M542.795,-78.169C536.269,-76.0008 529.447,-73.8435 523,-72 460.1,-54.0136 386.322,-37.5576 339.381,-27.6577"/>
<polygon fill="black" stroke="black" points="340.002,-24.2118 329.497,-25.5863 338.566,-31.063 340.002,-24.2118"/>
</g>
<!-- libgpg&#45;error -->
<g id="node16" class="node"><title>libgpg&#45;error</title>
<ellipse fill="none" stroke="black" cx="396" cy="-162" rx="66.9043" ry="18"/>
<text text-anchor="middle" x="396" y="-157.9" font-family="Times Roman,serif" font-size="14.00">libgpg&#45;error</text>
</g>
<!-- libgpg&#45;error&#45;&gt;gnupg -->
<g id="edge16" class="edge"><title>libgpg&#45;error&#45;&gt;gnupg</title>
<path fill="none" stroke="black" d="M339.548,-152.163C314.077,-144.604 286.322,-131.31 271,-108 258.485,-88.9602 266.316,-63.3498 275.772,-44.3172"/>
<polygon fill="black" stroke="black" points="278.968,-45.7635 280.614,-35.2972 272.801,-42.4529 278.968,-45.7635"/>
</g>
<!-- libgpg&#45;error&#45;&gt;libgcrypt -->
<g id="edge18" class="edge"><title>libgpg&#45;error&#45;&gt;libgcrypt</title>
<path fill="none" stroke="black" d="M380.427,-144.202C372.741,-135.418 363.338,-124.672 354.937,-115.071"/>
<polygon fill="black" stroke="black" points="357.396,-112.566 348.177,-107.345 352.128,-117.175 357.396,-112.566"/>
</g>
<!-- libgpg&#45;error&#45;&gt;libassuan -->
<g id="edge20" class="edge"><title>libgpg&#45;error&#45;&gt;libassuan</title>
<path fill="none" stroke="black" d="M411.573,-144.202C419.259,-135.418 428.662,-124.672 437.063,-115.071"/>
<polygon fill="black" stroke="black" points="439.872,-117.175 443.823,-107.345 434.604,-112.566 439.872,-117.175"/>
</g>
<!-- libgpg&#45;error&#45;&gt;libksba -->
<g id="edge22" class="edge"><title>libgpg&#45;error&#45;&gt;libksba</title>
<path fill="none" stroke="black" d="M433.734,-146.906C463.315,-135.074 504.424,-118.63 534.848,-106.461"/>
<polygon fill="black" stroke="black" points="536.338,-109.635 544.323,-102.671 533.738,-103.135 536.338,-109.635"/>
</g>
</g>
</svg>
