<?xml version="1.0" encoding="UTF-8" standalone="no"?>
<!DOCTYPE svg PUBLIC "-//W3C//DTD SVG 1.1//EN"
 "http://www.w3.org/Graphics/SVG/1.1/DTD/svg11.dtd">
<!-- Generated by graphviz version 2.30.1 (20130214.1330)
 -->
<!-- Title: Dependency Graph Pages: 1 -->
<svg width="394pt" height="260pt"
 viewBox="0.00 0.00 393.77 260.00" xmlns="http://www.w3.org/2000/svg" xmlns:xlink="http://www.w3.org/1999/xlink">
<g id="graph0" class="graph" transform="scale(1 1) rotate(0) translate(4 256)">
<title>Dependency Graph</title>
<polygon fill="white" stroke="white" points="-4,5 -4,-256 390.771,-256 390.771,5 -4,5"/>
<!-- pixman -->
<g id="node1" class="node"><title>pixman</title>
<ellipse fill="none" stroke="black" cx="37" cy="-90" rx="37.0701" ry="18"/>
<text text-anchor="middle" x="37" y="-86.3" font-family="Times New Roman,serif" font-size="14.00">pixman</text>
</g>
<!-- cairo -->
<g id="node2" class="node"><title>cairo</title>
<ellipse fill="none" stroke="black" cx="196" cy="-18" rx="28.3955" ry="18"/>
<text text-anchor="middle" x="196" y="-14.3" font-family="Times New Roman,serif" font-size="14.00">cairo</text>
</g>
<!-- pixman&#45;&gt;cairo -->
<g id="edge1" class="edge"><title>pixman&#45;&gt;cairo</title>
<path fill="none" stroke="black" d="M63.613,-77.2836C91.2534,-65.1148 134.504,-46.0739 163.992,-33.0916"/>
<polygon fill="black" stroke="black" points="165.68,-36.1726 173.422,-28.9399 162.86,-29.7659 165.68,-36.1726"/>
</g>
<!-- fontconfig -->
<g id="node3" class="node"><title>fontconfig</title>
<ellipse fill="none" stroke="black" cx="196" cy="-90" rx="48.1437" ry="18"/>
<text text-anchor="middle" x="196" y="-86.3" font-family="Times New Roman,serif" font-size="14.00">fontconfig</text>
</g>
<!-- fontconfig&#45;&gt;cairo -->
<g id="edge2" class="edge"><title>fontconfig&#45;&gt;cairo</title>
<path fill="none" stroke="black" d="M196,-71.6966C196,-63.9827 196,-54.7125 196,-46.1124"/>
<polygon fill="black" stroke="black" points="199.5,-46.1043 196,-36.1043 192.5,-46.1044 199.5,-46.1043"/>
</g>
<!-- freetype -->
<g id="node4" class="node"><title>freetype</title>
<ellipse fill="none" stroke="black" cx="124" cy="-162" rx="39.9464" ry="18"/>
<text text-anchor="middle" x="124" y="-158.3" font-family="Times New Roman,serif" font-size="14.00">freetype</text>
</g>
<!-- freetype&#45;&gt;cairo -->
<g id="edge3" class="edge"><title>freetype&#45;&gt;cairo</title>
<path fill="none" stroke="black" d="M117.136,-144.224C115.015,-125.521 117.659,-94.8968 130,-72 138.047,-57.071 151.904,-44.0413 165.001,-34.6368"/>
<polygon fill="black" stroke="black" points="167.064,-37.4672 173.429,-28.9968 163.171,-31.6497 167.064,-37.4672"/>
</g>
<!-- freetype&#45;&gt;cairo -->
<g id="edge7" class="edge"><title>freetype&#45;&gt;cairo</title>
<path fill="none" stroke="black" d="M130.279,-143.885C133.048,-125.153 135.733,-94.7589 148,-72 154.461,-60.0122 164.669,-49.249 174.123,-40.6041"/>
<polygon fill="black" stroke="black" points="176.593,-43.0935 181.789,-33.8603 171.969,-37.8379 176.593,-43.0935"/>
</g>
<!-- freetype&#45;&gt;fontconfig -->
<g id="edge10" class="edge"><title>freetype&#45;&gt;fontconfig</title>
<path fill="none" stroke="black" d="M139.979,-145.465C149.447,-136.26 161.624,-124.421 172.205,-114.134"/>
<polygon fill="black" stroke="black" points="174.836,-116.457 179.566,-106.977 169.957,-111.438 174.836,-116.457"/>
</g>
<!-- libpng -->
<g id="node5" class="node"><title>libpng</title>
<ellipse fill="none" stroke="black" cx="333" cy="-90" rx="33.2209" ry="18"/>
<text text-anchor="middle" x="333" y="-86.3" font-family="Times New Roman,serif" font-size="14.00">libpng</text>
</g>
<!-- libpng&#45;&gt;cairo -->
<g id="edge4" class="edge"><title>libpng&#45;&gt;cairo</title>
<path fill="none" stroke="black" d="M309.76,-77.1255C286.88,-65.4348 251.805,-47.5136 226.653,-34.6621"/>
<polygon fill="black" stroke="black" points="228.043,-31.4418 217.545,-30.0085 224.858,-37.6752 228.043,-31.4418"/>
</g>
<!-- zlib -->
<g id="node6" class="node"><title>zlib</title>
<ellipse fill="none" stroke="black" cx="264" cy="-234" rx="27" ry="18"/>
<text text-anchor="middle" x="264" y="-230.3" font-family="Times New Roman,serif" font-size="14.00">zlib</text>
</g>
<!-- zlib&#45;&gt;cairo -->
<g id="edge5" class="edge"><title>zlib&#45;&gt;cairo</title>
<path fill="none" stroke="black" d="M283.132,-221.27C324.573,-194.407 415.732,-126.54 375,-72 358.017,-49.2591 280.484,-32.8267 233.204,-24.7154"/>
<polygon fill="black" stroke="black" points="233.761,-21.2601 223.321,-23.0651 232.608,-28.1645 233.761,-21.2601"/>
</g>
<!-- zlib&#45;&gt;freetype -->
<g id="edge8" class="edge"><title>zlib&#45;&gt;freetype</title>
<path fill="none" stroke="black" d="M243.041,-222.52C220.893,-211.447 185.584,-193.792 159.162,-180.581"/>
<polygon fill="black" stroke="black" points="160.38,-177.277 149.871,-175.935 157.25,-183.538 160.38,-177.277"/>
</g>
<!-- zlib&#45;&gt;libpng -->
<g id="edge9" class="edge"><title>zlib&#45;&gt;libpng</title>
<path fill="none" stroke="black" d="M276.947,-218.066C285.27,-207.879 295.829,-193.783 303,-180 313.318,-160.17 321.188,-136.055 326.274,-117.931"/>
<polygon fill="black" stroke="black" points="329.719,-118.597 328.943,-108.03 322.96,-116.774 329.719,-118.597"/>
</g>
<!-- zlib&#45;&gt;fontconfig -->
<g id="edge11" class="edge"><title>zlib&#45;&gt;fontconfig</title>
<path fill="none" stroke="black" d="M250.605,-218.168C242.02,-208.024 231.179,-193.937 224,-180 213.831,-160.259 206.524,-136.137 201.929,-117.989"/>
<polygon fill="black" stroke="black" points="205.284,-116.972 199.536,-108.072 198.479,-118.614 205.284,-116.972"/>
</g>
<!-- expat -->
<g id="node7" class="node"><title>expat</title>
<ellipse fill="none" stroke="black" cx="264" cy="-162" rx="30.3206" ry="18"/>
<text text-anchor="middle" x="264" y="-158.3" font-family="Times New Roman,serif" font-size="14.00">expat</text>
</g>
<!-- expat&#45;&gt;cairo -->
<g id="edge6" class="edge"><title>expat&#45;&gt;cairo</title>
<path fill="none" stroke="black" d="M265.249,-143.929C265.879,-125.236 264.688,-94.8758 253,-72 246.141,-58.5757 234.435,-46.7863 223.409,-37.7564"/>
<polygon fill="black" stroke="black" points="225.253,-34.7578 215.202,-31.4076 220.97,-40.2946 225.253,-34.7578"/>
</g>
<!-- expat&#45;&gt;fontconfig -->
<g id="edge12" class="edge"><title>expat&#45;&gt;fontconfig</title>
<path fill="none" stroke="black" d="M249.579,-146.155C240.669,-136.983 229.039,-125.011 218.892,-114.565"/>
<polygon fill="black" stroke="black" points="221.303,-112.025 211.825,-107.29 216.282,-116.902 221.303,-112.025"/>
</g>
</g>
</svg>
